<?xml version="1.0" encoding="iso-8859-1"?>
<!-- Uploaded to: SVG Repo, www.svgrepo.com, Generator: SVG Repo Mixer Tools -->
<!DOCTYPE svg PUBLIC "-//W3C//DTD SVG 1.1//EN" "http://www.w3.org/Graphics/SVG/1.1/DTD/svg11.dtd">
<svg fill="#000000" version="1.1" id="Capa_1" xmlns="http://www.w3.org/2000/svg" xmlns:xlink="http://www.w3.org/1999/xlink" 
	 width="800px" height="800px" viewBox="0 0 612 612" xml:space="preserve">
<g>
	<g>
		<path d="M41.19,612H612v-41.19H41.19V500.53h23.696c9.051,0,16.395-7.34,16.395-16.396c0-9.051-7.339-16.395-16.395-16.395H41.19
			v-73.22h23.696c9.051,0,16.395-7.34,16.395-16.396c0-9.051-7.339-16.395-16.395-16.395H41.19v-73.215h23.696
			c9.051,0,16.395-7.339,16.395-16.395c0-9.051-7.339-16.395-16.395-16.395H41.19v-73.22h23.696c9.051,0,16.395-7.339,16.395-16.395
			s-7.339-16.395-16.395-16.395H41.19V76.5h23.696c9.056,0,16.395-7.339,16.395-16.395S73.942,43.71,64.886,43.71H41.19V0H0v570.81
			V612l0,0H41.19L41.19,612z"/>
		<polygon points="156.61,447.262 199.502,315.295 257.27,445.269 334.118,200.306 414.73,375.754 496.438,130.638 523.494,187.219 
			566.631,166.593 488.5,3.237 407.645,245.809 325.694,67.444 249.543,310.169 192.56,181.955 111.14,432.488 		"/>
	</g>
</g>
</svg>