<!DOCTYPE svg PUBLIC "-//W3C//DTD SVG 1.1//EN" "http://www.w3.org/Graphics/SVG/1.1/DTD/svg11.dtd">
<!-- Uploaded to: SVG Repo, www.svgrepo.com, Transformed by: SVG Repo Mixer Tools -->
<svg fill="#64625985" height="800px" width="800px" version="1.1" id="Layer_1" xmlns="http://www.w3.org/2000/svg" xmlns:xlink="http://www.w3.org/1999/xlink" viewBox="0 0 492.308 492.308" xml:space="preserve" stroke="#64625985" stroke-width="0.00492308">
<g id="SVGRepo_bgCarrier" stroke-width="0"/>
<g id="SVGRepo_tracerCarrier" stroke-linecap="round" stroke-linejoin="round" stroke="#CCCCCC" stroke-width="0.9846159999999999"/>
<g id="SVGRepo_iconCarrier"> <g> <g> <path d="M41.312,0v492.308h409.683V0H41.312z M431.303,472.615H61.005V19.692h370.298V472.615z"/> </g> </g> <g> <g> <path d="M86.562,59.221v144.096h319.183V59.221H86.562z M386.053,183.625H106.255V78.913h279.798V183.625z"/> </g> </g> <g> <g> <path d="M86.562,241.067v86.394h89.875v-86.394H86.562z M156.745,307.769h-50.49v-47.01h50.49V307.769z"/> </g> </g> <g> <g> <path d="M201.216,241.067v86.394h89.875v-86.394H201.216z M271.399,307.769h-50.49v-47.01h50.49V307.769z"/> </g> </g> <g> <g> <path d="M315.88,241.067v86.394h89.865v-86.394H315.88z M386.053,307.769h-50.481v-47.01h50.481V307.769z"/> </g> </g> <g> <g> <path d="M86.562,347.154v86.404h89.875v-86.404H86.562z M156.745,413.865h-50.49v-47.019h50.49V413.865z"/> </g> </g> <g> <g> <path d="M201.216,347.154v86.404h89.875v-86.404H201.216z M271.399,413.865h-50.49v-47.019h50.49V413.865z"/> </g> </g> <g> <g> <path d="M315.88,347.154v86.404h89.865v-86.404H315.88z M386.053,413.865h-50.481v-47.019h50.481V413.865z"/> </g> </g> </g>
</svg>