<svg width="189" height="60" viewBox="0 0 189 60" fill="none" xmlns="http://www.w3.org/2000/svg">
<path d="M189 55.31V57.92C188.91 58.05 188.77 58.2 188.581 58.36C188.391 58.52 188.121 58.66 187.782 58.78C187.442 58.9 187.013 58.96 186.473 58.96C186.034 58.96 185.634 58.88 185.275 58.73C184.915 58.58 184.596 58.35 184.326 58.06C184.056 57.77 183.857 57.41 183.707 56.99C183.567 56.57 183.487 56.09 183.487 55.56V55.01C183.487 54.48 183.547 54 183.677 53.58C183.807 53.16 183.986 52.81 184.236 52.52C184.486 52.23 184.785 52 185.145 51.85C185.504 51.7 185.914 51.62 186.373 51.62C186.923 51.62 187.372 51.71 187.742 51.9C188.111 52.09 188.401 52.34 188.61 52.67C188.82 53 188.95 53.38 189.01 53.8H188.061C188.021 53.54 187.931 53.31 187.802 53.09C187.682 52.88 187.502 52.71 187.262 52.58C187.032 52.45 186.733 52.38 186.363 52.38C186.034 52.38 185.744 52.44 185.504 52.56C185.265 52.68 185.065 52.85 184.905 53.08C184.745 53.31 184.626 53.58 184.556 53.9C184.476 54.22 184.446 54.58 184.446 54.98V55.54C184.446 55.95 184.496 56.32 184.586 56.64C184.685 56.96 184.825 57.24 185.005 57.47C185.185 57.7 185.405 57.87 185.644 57.98C185.894 58.1 186.174 58.16 186.483 58.16C186.823 58.16 187.092 58.13 187.302 58.08C187.512 58.02 187.672 57.95 187.792 57.87C187.911 57.79 188.001 57.71 188.061 57.64V56.04H186.403V55.28H189V55.31Z" fill="#F3F0ED"/>
<path d="M182.039 51.73V58.86H181.09L177.485 53.36V58.86H176.536V51.73H177.485L181.1 57.25V51.73H182.039Z" fill="#F3F0ED"/>
<path d="M174.808 51.73V58.86H173.859V51.73H174.808Z" fill="#F3F0ED"/>
<path d="M172.731 51.73V52.5H170.434V58.86H169.495V52.5H167.208V51.73H172.731Z" fill="#F3F0ED"/>
<path d="M168.057 58.09V58.86H163.722V51.73H164.671V58.09H168.057Z" fill="#F3F0ED"/>
<path d="M161.285 51.73H162.224V56.56C162.224 57.1 162.104 57.54 161.864 57.9C161.625 58.26 161.305 58.52 160.916 58.7C160.526 58.88 160.097 58.96 159.637 58.96C159.148 58.96 158.718 58.87 158.319 58.7C157.929 58.52 157.62 58.25 157.39 57.9C157.16 57.54 157.051 57.1 157.051 56.56V51.73H157.989V56.56C157.989 56.93 158.059 57.24 158.199 57.48C158.339 57.72 158.529 57.9 158.778 58.02C159.028 58.14 159.318 58.2 159.647 58.2C159.977 58.2 160.266 58.14 160.516 58.02C160.766 57.9 160.956 57.72 161.095 57.48C161.235 57.24 161.305 56.93 161.305 56.56V51.73H161.285Z" fill="#F3F0ED"/>
<path d="M155.033 57.0598C155.033 56.8898 155.003 56.7498 154.953 56.6198C154.903 56.4898 154.813 56.3698 154.684 56.2698C154.564 56.1698 154.384 56.0698 154.164 55.9698C153.945 55.8798 153.665 55.7798 153.325 55.6798C152.976 55.5798 152.656 55.4598 152.367 55.3298C152.077 55.1998 151.837 55.0498 151.637 54.8798C151.438 54.7098 151.278 54.5198 151.168 54.3098C151.058 54.0898 151.008 53.8498 151.008 53.5698C151.008 53.2898 151.068 53.0398 151.178 52.7998C151.288 52.5598 151.458 52.3598 151.667 52.1898C151.887 52.0098 152.137 51.8798 152.436 51.7798C152.736 51.6798 153.066 51.6298 153.435 51.6298C153.974 51.6298 154.424 51.7298 154.803 51.9398C155.183 52.1398 155.463 52.4098 155.662 52.7398C155.862 53.0698 155.952 53.4198 155.952 53.7898H155.013C155.013 53.5198 154.953 53.2898 154.843 53.0798C154.733 52.8698 154.554 52.7098 154.324 52.5898C154.094 52.4698 153.795 52.4098 153.435 52.4098C153.096 52.4098 152.816 52.4598 152.596 52.5598C152.376 52.6598 152.217 52.7998 152.107 52.9698C152.007 53.1398 151.947 53.3398 151.947 53.5598C151.947 53.7098 151.977 53.8498 152.037 53.9698C152.107 54.0898 152.207 54.1998 152.337 54.3098C152.476 54.4098 152.646 54.5098 152.856 54.5998C153.066 54.6898 153.325 54.7698 153.615 54.8498C154.024 54.9598 154.374 55.0898 154.664 55.2298C154.953 55.3698 155.203 55.5298 155.393 55.7098C155.582 55.8798 155.732 56.0798 155.822 56.2998C155.922 56.5198 155.962 56.7698 155.962 57.0398C155.962 57.3298 155.902 57.5898 155.782 57.8298C155.662 58.0698 155.493 58.2698 155.273 58.4298C155.053 58.5998 154.793 58.7298 154.484 58.8198C154.174 58.9098 153.835 58.9498 153.465 58.9498C153.136 58.9498 152.806 58.8998 152.486 58.8098C152.167 58.7198 151.877 58.5798 151.617 58.3998C151.358 58.2198 151.148 57.9898 150.998 57.7198C150.848 57.4498 150.769 57.1398 150.769 56.7798H151.707C151.707 57.0198 151.757 57.2398 151.847 57.4098C151.937 57.5798 152.067 57.7298 152.237 57.8398C152.406 57.9498 152.596 58.0398 152.806 58.0898C153.016 58.1398 153.235 58.1698 153.465 58.1698C153.795 58.1698 154.074 58.1198 154.304 58.0298C154.534 57.9398 154.704 57.8098 154.823 57.6398C154.973 57.4898 155.033 57.2898 155.033 57.0598Z" fill="#F3F0ED"/>
<path d="M149.54 51.73V58.86H148.591L144.986 53.36V58.86H144.037V51.73H144.986L148.601 57.25V51.73H149.54Z" fill="#F3F0ED"/>
<path d="M142.619 55.07V55.52C142.619 56.06 142.549 56.54 142.419 56.96C142.289 57.38 142.09 57.75 141.84 58.04C141.59 58.34 141.281 58.56 140.931 58.72C140.581 58.88 140.192 58.96 139.753 58.96C139.333 58.96 138.944 58.88 138.584 58.72C138.234 58.56 137.925 58.34 137.675 58.04C137.416 57.74 137.226 57.38 137.076 56.96C136.936 56.54 136.866 56.06 136.866 55.52V55.07C136.866 54.53 136.936 54.06 137.076 53.63C137.216 53.21 137.416 52.84 137.675 52.55C137.935 52.25 138.234 52.02 138.584 51.86C138.934 51.7 139.323 51.62 139.753 51.62C140.192 51.62 140.581 51.7 140.931 51.86C141.281 52.02 141.59 52.25 141.84 52.55C142.1 52.85 142.289 53.21 142.429 53.63C142.549 54.06 142.619 54.53 142.619 55.07ZM141.68 55.52V55.06C141.68 54.64 141.64 54.26 141.55 53.93C141.46 53.6 141.341 53.33 141.171 53.11C141.001 52.89 140.801 52.72 140.562 52.61C140.322 52.5 140.052 52.44 139.743 52.44C139.443 52.44 139.183 52.5 138.944 52.61C138.704 52.72 138.504 52.89 138.334 53.11C138.165 53.33 138.035 53.61 137.945 53.93C137.855 54.26 137.805 54.63 137.805 55.06V55.52C137.805 55.95 137.855 56.33 137.945 56.66C138.035 56.99 138.165 57.26 138.334 57.49C138.504 57.71 138.714 57.88 138.944 57.99C139.183 58.1 139.453 58.16 139.743 58.16C140.052 58.16 140.322 58.1 140.562 57.99C140.801 57.88 141.001 57.71 141.171 57.49C141.341 57.26 141.46 56.99 141.55 56.66C141.64 56.33 141.68 55.95 141.68 55.52Z" fill="#F3F0ED"/>
<path d="M134.879 56.59H135.818C135.768 57.04 135.638 57.44 135.428 57.8C135.218 58.16 134.919 58.44 134.539 58.65C134.16 58.86 133.68 58.96 133.101 58.96C132.682 58.96 132.302 58.88 131.952 58.72C131.613 58.56 131.323 58.34 131.074 58.05C130.824 57.76 130.634 57.41 130.504 57.01C130.374 56.6 130.305 56.15 130.305 55.65V54.94C130.305 54.44 130.374 53.99 130.504 53.58C130.634 53.17 130.834 52.82 131.084 52.53C131.333 52.24 131.643 52.02 131.992 51.86C132.342 51.7 132.741 51.62 133.191 51.62C133.73 51.62 134.19 51.72 134.559 51.92C134.929 52.12 135.218 52.4 135.428 52.76C135.638 53.12 135.768 53.53 135.818 54H134.879C134.829 53.67 134.749 53.38 134.619 53.14C134.499 52.9 134.319 52.71 134.09 52.58C133.86 52.45 133.56 52.38 133.191 52.38C132.871 52.38 132.592 52.44 132.352 52.56C132.112 52.68 131.912 52.85 131.753 53.07C131.593 53.29 131.473 53.56 131.393 53.87C131.313 54.18 131.273 54.52 131.273 54.9V55.62C131.273 55.97 131.313 56.3 131.383 56.6C131.463 56.91 131.573 57.18 131.723 57.41C131.873 57.64 132.062 57.82 132.302 57.96C132.532 58.09 132.811 58.16 133.131 58.16C133.53 58.16 133.85 58.1 134.09 57.97C134.329 57.84 134.509 57.66 134.629 57.42C134.739 57.21 134.829 56.93 134.879 56.59Z" fill="#F3F0ED"/>
<path d="M124.372 51.73H123.543L120.817 58.86H121.785L122.464 56.99H125.461L126.14 58.86H127.109L124.372 51.73ZM122.744 56.22L123.963 52.89L125.181 56.22H122.744Z" fill="#F3F0ED"/>
<path d="M120.687 52.78C120.497 52.45 120.207 52.19 119.838 52.01C119.468 51.82 119.009 51.73 118.47 51.73H115.833V58.86H116.782V56.06H118.47C119.009 56.06 119.468 55.98 119.838 55.81C120.217 55.64 120.497 55.39 120.687 55.07C120.877 54.75 120.976 54.36 120.976 53.9C120.976 53.48 120.886 53.11 120.687 52.78ZM119.868 54.63C119.768 54.84 119.598 55 119.368 55.12C119.139 55.24 118.839 55.3 118.47 55.3H116.782V52.5H118.47C118.839 52.5 119.139 52.57 119.368 52.7C119.598 52.83 119.768 53 119.868 53.22C119.978 53.44 120.028 53.67 120.028 53.91C120.028 54.18 119.978 54.42 119.868 54.63Z" fill="#F3F0ED"/>
<path d="M113.596 56.59H114.535C114.485 57.04 114.355 57.44 114.145 57.8C113.935 58.16 113.636 58.44 113.256 58.65C112.877 58.86 112.397 58.96 111.818 58.96C111.399 58.96 111.019 58.88 110.669 58.72C110.33 58.56 110.04 58.34 109.791 58.05C109.541 57.76 109.351 57.41 109.221 57.01C109.091 56.6 109.022 56.15 109.022 55.65V54.94C109.022 54.44 109.091 53.99 109.221 53.58C109.351 53.17 109.551 52.82 109.801 52.53C110.05 52.24 110.36 52.02 110.709 51.86C111.059 51.7 111.458 51.62 111.908 51.62C112.447 51.62 112.907 51.72 113.276 51.92C113.646 52.12 113.935 52.4 114.145 52.76C114.355 53.12 114.485 53.53 114.535 54H113.596C113.546 53.67 113.466 53.38 113.336 53.14C113.216 52.9 113.036 52.71 112.807 52.58C112.577 52.45 112.277 52.38 111.908 52.38C111.588 52.38 111.309 52.44 111.069 52.56C110.829 52.68 110.63 52.85 110.46 53.07C110.3 53.29 110.18 53.56 110.1 53.87C110.02 54.18 109.98 54.52 109.98 54.9V55.62C109.98 55.97 110.02 56.3 110.09 56.6C110.17 56.91 110.28 57.18 110.43 57.41C110.58 57.64 110.769 57.82 111.009 57.96C111.239 58.09 111.518 58.16 111.838 58.16C112.237 58.16 112.557 58.1 112.797 57.97C113.036 57.84 113.216 57.66 113.336 57.42C113.456 57.21 113.546 56.93 113.596 56.59Z" fill="#F3F0ED"/>
<path d="M104.088 55.77C104.308 55.69 104.507 55.58 104.677 55.45C104.927 55.26 105.117 55.03 105.246 54.76C105.376 54.49 105.446 54.19 105.446 53.87C105.446 53.41 105.346 53.02 105.146 52.7C104.957 52.38 104.667 52.14 104.298 51.98C103.928 51.82 103.479 51.74 102.939 51.74H100.572V58.87H101.521V55.98H103.199L104.757 58.87H105.766V58.8L104.088 55.77ZM101.531 55.2V52.5H102.949C103.319 52.5 103.608 52.56 103.838 52.67C104.068 52.78 104.238 52.94 104.347 53.15C104.457 53.35 104.507 53.6 104.507 53.87C104.507 54.11 104.447 54.34 104.338 54.54C104.228 54.74 104.058 54.9 103.828 55.02C103.598 55.14 103.319 55.2 102.979 55.2H101.531Z" fill="#F3F0ED"/>
<path d="M99.4138 58.09V58.86H94.8695V51.73H99.3638V52.5H95.8183V54.79H98.9144V55.56H95.8183V58.09H99.4138Z" fill="#F3F0ED"/>
<path d="M93.2716 55.96C93.1417 55.7 92.9619 55.5 92.7222 55.33C92.5724 55.23 92.4027 55.15 92.2129 55.1C92.2828 55.07 92.3427 55.04 92.4126 55C92.6823 54.85 92.892 54.66 93.0418 54.42C93.1917 54.18 93.2716 53.91 93.2716 53.62C93.2716 53.29 93.2216 53 93.1118 52.76C93.0119 52.52 92.8521 52.33 92.6523 52.17C92.4526 52.01 92.2029 51.9 91.9233 51.82C91.6336 51.75 91.3041 51.71 90.9445 51.71H88.5975V58.84H91.1043C91.5837 58.84 91.9932 58.76 92.3527 58.6C92.7023 58.44 92.9819 58.21 93.1717 57.91C93.3714 57.6 93.4713 57.23 93.4713 56.78C93.4613 56.49 93.4014 56.21 93.2716 55.96ZM89.5463 52.5H90.9445C91.2541 52.5 91.5138 52.54 91.7235 52.62C91.9332 52.69 92.0831 52.82 92.1829 52.98C92.2828 53.14 92.3327 53.36 92.3327 53.62C92.3327 53.86 92.2728 54.06 92.163 54.24C92.0531 54.41 91.8933 54.54 91.6936 54.63C91.4938 54.72 91.2541 54.77 90.9845 54.77H89.5563V52.5H89.5463ZM92.3527 57.49C92.2429 57.68 92.0831 57.83 91.8633 57.93C91.6536 58.03 91.4039 58.09 91.0943 58.09H89.5363V55.52H91.1343C91.4539 55.52 91.7235 55.57 91.9233 55.68C92.123 55.79 92.2728 55.93 92.3727 56.13C92.4726 56.33 92.5125 56.55 92.5125 56.82C92.5225 57.07 92.4626 57.3 92.3527 57.49Z" fill="#F3F0ED"/>
<path d="M87.429 58.09V58.86H82.8847V51.73H87.379V52.5H83.8335V54.79H86.9296V55.56H83.8335V58.09H87.429Z" fill="#F3F0ED"/>
<path d="M81.8261 51.73L80.0983 58.86H79.2394L77.7712 53.66L77.6514 53.11L77.5415 53.66L76.0135 58.86H75.1546L73.4168 51.73H74.3556L75.4941 56.6L75.634 57.55L75.8337 56.71L77.2519 51.73H78.0409L79.4192 56.71L79.6189 57.57L79.7687 56.6L80.8773 51.73H81.8261Z" fill="#F3F0ED"/>
<path d="M156.421 29.36H163.612C163.512 31.45 162.953 33.29 161.924 34.88C160.896 36.47 159.477 37.72 157.65 38.61C155.842 39.49 153.705 39.93 151.238 39.93C149.24 39.93 147.453 39.59 145.875 38.92C144.317 38.25 142.988 37.28 141.89 36.02C140.811 34.76 139.982 33.23 139.403 31.43C138.844 29.63 138.564 27.6 138.564 25.35V23.72C138.564 21.47 138.854 19.44 139.443 17.64C140.042 15.83 140.891 14.29 141.99 13.03C143.098 11.75 144.427 10.78 145.975 10.1C147.523 9.43 149.241 9.09 151.128 9.09C153.735 9.09 155.932 9.56 157.72 10.49C159.517 11.42 160.906 12.71 161.884 14.34C162.873 15.96 163.452 17.81 163.632 19.88H156.441C156.411 18.75 156.222 17.81 155.862 17.06C155.503 16.29 154.943 15.71 154.174 15.33C153.405 14.95 152.386 14.75 151.118 14.75C150.229 14.75 149.45 14.91 148.801 15.24C148.152 15.57 147.593 16.09 147.153 16.81C146.714 17.52 146.384 18.45 146.164 19.59C145.955 20.72 145.855 22.08 145.855 23.67V25.34C145.855 26.93 145.955 28.29 146.144 29.42C146.334 30.55 146.644 31.47 147.073 32.18C147.503 32.89 148.042 33.42 148.721 33.77C149.41 34.1 150.239 34.26 151.228 34.26C152.327 34.26 153.245 34.09 154.004 33.75C154.753 33.39 155.343 32.86 155.752 32.14C156.182 31.41 156.401 30.48 156.421 29.36Z" fill="#D88546"/>
<path d="M128.816 29.36H136.007C135.907 31.45 135.348 33.29 134.319 34.88C133.291 36.47 131.873 37.72 130.045 38.61C128.237 39.49 126.1 39.93 123.633 39.93C121.636 39.93 119.848 39.59 118.27 38.92C116.712 38.25 115.383 37.28 114.285 36.02C113.206 34.76 112.377 33.23 111.798 31.43C111.239 29.63 110.959 27.6 110.959 25.35V23.72C110.959 21.47 111.249 19.44 111.838 17.64C112.437 15.83 113.286 14.29 114.385 13.03C115.493 11.75 116.822 10.78 118.37 10.1C119.918 9.43 121.636 9.09 123.523 9.09C126.13 9.09 128.327 9.56 130.115 10.49C131.912 11.42 133.301 12.71 134.279 14.34C135.268 15.96 135.847 17.81 136.027 19.88H128.836C128.806 18.75 128.617 17.81 128.257 17.06C127.898 16.29 127.338 15.71 126.569 15.33C125.8 14.95 124.782 14.75 123.513 14.75C122.624 14.75 121.845 14.91 121.196 15.24C120.537 15.57 119.988 16.09 119.548 16.81C119.109 17.52 118.779 18.45 118.559 19.59C118.35 20.72 118.25 22.08 118.25 23.67V25.34C118.25 26.93 118.35 28.29 118.539 29.42C118.729 30.55 119.039 31.47 119.468 32.18C119.898 32.89 120.437 33.42 121.116 33.77C121.805 34.1 122.634 34.26 123.623 34.26C124.722 34.26 125.64 34.09 126.399 33.75C127.149 33.39 127.738 32.86 128.147 32.14C128.567 31.41 128.786 30.48 128.816 29.36Z" fill="#D88546"/>
<path d="M108.972 9.50999L102.63 39.51H95.1692L91.1642 22.41L87.2392 39.51H79.7687L73.4168 9.50999H80.5677L84.0033 28.29L88.1081 9.50999H94.2303L98.405 28.33L101.851 9.50999H108.972Z" fill="#D88546"/>
<path fill-rule="evenodd" clip-rule="evenodd" d="M36.2939 0H48.3386V58.93H57.0276V10.08H53.4421V9.01H58.0962V60H47.27V1.07H37.3526V60H33.2378V21.07H24.2392V60H20.1244V28.85H10.8263V60H0V9.01H28.4339V10.08H1.06864V58.93H9.75761V27.79H21.1931V58.94H23.1706V20H34.3064V58.93H36.2839V0H36.2939Z" fill="#F3F0ED"/>
</svg>
