<?xml version="1.0" encoding="utf-8"?>
<!-- Generator: Adobe Illustrator 26.3.1, SVG Export Plug-In . SVG Version: 6.00 Build 0)  -->
<svg version="1.1" id="Layer_1" xmlns="http://www.w3.org/2000/svg" xmlns:xlink="http://www.w3.org/1999/xlink" x="0px" y="0px"
	 viewBox="0 0 189.2 60" style="enable-background:new 0 0 189.2 60;" xml:space="preserve">
<style type="text/css">
	.st0{fill:#F3F0ED;}
	.st1{fill:#D98545;}
	.st2{fill-rule:evenodd;clip-rule:evenodd;fill:#F3F0ED;}
</style>
<g id="LOGO">
	<g id="Weber_cpa_consulting">
		<path class="st0" d="M189.2,55.3v2.6c-0.1,0.1-0.2,0.3-0.4,0.4s-0.5,0.3-0.8,0.4s-0.8,0.2-1.3,0.2c-0.4,0-0.8-0.1-1.2-0.2
			c-0.4-0.2-0.7-0.4-0.9-0.7c-0.3-0.3-0.5-0.7-0.6-1.1c-0.1-0.4-0.2-0.9-0.2-1.4V55c0-0.5,0.1-1,0.2-1.4c0.1-0.4,0.3-0.8,0.6-1.1
			s0.6-0.5,0.9-0.7c0.4-0.2,0.8-0.2,1.2-0.2c0.6,0,1,0.1,1.4,0.3s0.7,0.4,0.9,0.8c0.2,0.3,0.3,0.7,0.4,1.1h-0.9
			c0-0.3-0.1-0.5-0.3-0.7c-0.1-0.2-0.3-0.4-0.5-0.5c-0.2-0.1-0.5-0.2-0.9-0.2c-0.3,0-0.6,0.1-0.9,0.2s-0.4,0.3-0.6,0.5
			s-0.3,0.5-0.4,0.8c-0.1,0.3-0.1,0.7-0.1,1.1v0.6c0,0.4,0.1,0.8,0.1,1.1c0.1,0.3,0.2,0.6,0.4,0.8c0.2,0.2,0.4,0.4,0.6,0.5
			c0.2,0.1,0.5,0.2,0.8,0.2c0.3,0,0.6,0,0.8-0.1c0.2-0.1,0.4-0.1,0.5-0.2c0.1-0.1,0.2-0.2,0.3-0.2V56h-1.7v-0.8L189.2,55.3
			L189.2,55.3z"/>
		<path class="st0" d="M182.3,51.7v7.1h-0.9l-3.6-5.5v5.5h-0.9v-7.1h0.9l3.6,5.5v-5.5H182.3z"/>
		<path class="st0" d="M175,51.7v7.1h-0.9v-7.1H175z"/>
		<polygon class="st0" points="172.9,51.7 172.9,52.5 170.6,52.5 170.6,58.9 169.7,58.9 169.7,52.5 167.4,52.5 167.4,51.7 		"/>
		<polygon class="st0" points="168.3,58.1 168.3,58.9 163.9,58.9 163.9,51.7 164.9,51.7 164.9,58.1 		"/>
		<path class="st0" d="M161.5,51.7h0.9v4.8c0,0.5-0.1,1-0.4,1.3s-0.6,0.6-0.9,0.8s-0.8,0.3-1.3,0.3c-0.5,0-0.9-0.1-1.3-0.3
			c-0.4-0.2-0.7-0.5-0.9-0.8c-0.2-0.4-0.3-0.8-0.3-1.3v-4.8h0.9v4.8c0,0.4,0.1,0.7,0.2,0.9c0.1,0.2,0.3,0.4,0.6,0.5
			c0.2,0.1,0.5,0.2,0.9,0.2s0.6-0.1,0.9-0.2s0.4-0.3,0.6-0.5s0.2-0.5,0.2-0.9L161.5,51.7L161.5,51.7z"/>
		<path class="st0" d="M155.2,57.1c0-0.2,0-0.3-0.1-0.4c-0.1-0.1-0.1-0.2-0.3-0.3c-0.1-0.1-0.3-0.2-0.5-0.3
			c-0.2-0.1-0.5-0.2-0.8-0.3c-0.4-0.1-0.7-0.2-1-0.3c-0.3-0.1-0.5-0.3-0.7-0.5c-0.2-0.2-0.4-0.4-0.5-0.6c-0.1-0.2-0.2-0.5-0.2-0.7
			c0-0.3,0.1-0.5,0.2-0.8s0.3-0.4,0.5-0.6c0.2-0.2,0.5-0.3,0.8-0.4s0.6-0.2,1-0.2c0.5,0,1,0.1,1.4,0.3c0.4,0.2,0.7,0.5,0.9,0.8
			c0.2,0.3,0.3,0.7,0.3,1h-0.9c0-0.3-0.1-0.5-0.2-0.7s-0.3-0.4-0.5-0.5c-0.2-0.1-0.5-0.2-0.9-0.2c-0.3,0-0.6,0-0.8,0.2
			c-0.2,0.1-0.4,0.2-0.5,0.4c-0.1,0.2-0.2,0.4-0.2,0.6c0,0.2,0,0.3,0.1,0.4c0.1,0.1,0.2,0.2,0.3,0.3c0.1,0.1,0.3,0.2,0.5,0.3
			s0.5,0.2,0.8,0.2c0.4,0.1,0.8,0.2,1.1,0.4c0.3,0.1,0.5,0.3,0.7,0.5c0.2,0.2,0.3,0.4,0.4,0.6c0.1,0.2,0.1,0.5,0.1,0.7
			c0,0.3-0.1,0.5-0.2,0.8s-0.3,0.4-0.5,0.6c-0.2,0.2-0.5,0.3-0.8,0.4s-0.6,0.1-1,0.1c-0.3,0-0.7,0-1-0.1c-0.3-0.1-0.6-0.2-0.9-0.4
			s-0.5-0.4-0.6-0.7s-0.2-0.6-0.2-0.9h0.9c0,0.2,0.1,0.5,0.1,0.6c0.1,0.2,0.2,0.3,0.4,0.4s0.4,0.2,0.6,0.2s0.4,0.1,0.7,0.1
			c0.3,0,0.6,0,0.8-0.1s0.4-0.2,0.5-0.4C155.2,57.5,155.2,57.3,155.2,57.1z"/>
		<path class="st0" d="M149.7,51.7v7.1h-0.9l-3.6-5.5v5.5h-0.9v-7.1h0.9l3.6,5.5v-5.5H149.7z"/>
		<path class="st0" d="M142.8,55.1v0.5c0,0.5-0.1,1-0.2,1.4c-0.1,0.4-0.3,0.8-0.6,1.1c-0.2,0.3-0.6,0.5-0.9,0.7s-0.7,0.2-1.2,0.2
			c-0.4,0-0.8-0.1-1.2-0.2c-0.4-0.2-0.7-0.4-0.9-0.7c-0.3-0.3-0.4-0.7-0.6-1.1c-0.1-0.4-0.2-0.9-0.2-1.4v-0.5c0-0.5,0.1-1,0.2-1.4
			c0.1-0.4,0.3-0.8,0.6-1.1c0.3-0.3,0.6-0.5,0.9-0.7s0.7-0.2,1.2-0.2c0.4,0,0.8,0.1,1.2,0.2c0.4,0.2,0.7,0.4,0.9,0.7
			c0.3,0.3,0.4,0.7,0.6,1.1C142.7,54.1,142.8,54.5,142.8,55.1z M141.9,55.5v-0.5c0-0.4,0-0.8-0.1-1.1c-0.1-0.3-0.2-0.6-0.4-0.8
			s-0.4-0.4-0.6-0.5s-0.5-0.2-0.8-0.2c-0.3,0-0.6,0.1-0.8,0.2c-0.2,0.1-0.4,0.3-0.6,0.5s-0.3,0.5-0.4,0.8c-0.1,0.3-0.1,0.7-0.1,1.1
			v0.5c0,0.4,0.1,0.8,0.1,1.1c0.1,0.3,0.2,0.6,0.4,0.8c0.2,0.2,0.4,0.4,0.6,0.5c0.2,0.1,0.5,0.2,0.8,0.2c0.3,0,0.6-0.1,0.8-0.2
			c0.2-0.1,0.4-0.3,0.6-0.5c0.2-0.2,0.3-0.5,0.4-0.8C141.8,56.3,141.9,56,141.9,55.5z"/>
		<path class="st0" d="M135.1,56.6h0.9c-0.1,0.5-0.2,0.8-0.4,1.2s-0.5,0.6-0.9,0.8s-0.9,0.3-1.4,0.3c-0.4,0-0.8-0.1-1.1-0.2
			c-0.3-0.2-0.6-0.4-0.9-0.7c-0.2-0.3-0.4-0.6-0.6-1c-0.1-0.4-0.2-0.9-0.2-1.4v-0.7c0-0.5,0.1-1,0.2-1.4c0.1-0.4,0.3-0.8,0.6-1
			s0.6-0.5,0.9-0.7s0.8-0.2,1.2-0.2c0.5,0,1,0.1,1.4,0.3s0.7,0.5,0.9,0.8c0.2,0.4,0.3,0.8,0.4,1.2H135c-0.1-0.3-0.1-0.6-0.3-0.9
			c-0.1-0.2-0.3-0.4-0.5-0.6s-0.5-0.2-0.9-0.2c-0.3,0-0.6,0.1-0.8,0.2c-0.2,0.1-0.4,0.3-0.6,0.5c-0.2,0.2-0.3,0.5-0.4,0.8
			c-0.1,0.3-0.1,0.7-0.1,1v0.7c0,0.3,0,0.7,0.1,1c0.1,0.3,0.2,0.6,0.3,0.8s0.3,0.4,0.6,0.5c0.2,0.1,0.5,0.2,0.8,0.2
			c0.4,0,0.7-0.1,1-0.2c0.2-0.1,0.4-0.3,0.5-0.5C134.9,57.2,135,56.9,135.1,56.6z"/>
		<path class="st0" d="M124.5,51.7h-0.8l-2.7,7.1h1l0.7-1.9h3l0.7,1.9h1L124.5,51.7z M122.9,56.2l1.2-3.3l1.2,3.3H122.9z"/>
		<path class="st0" d="M120.8,52.8c-0.2-0.3-0.5-0.6-0.8-0.8c-0.4-0.2-0.8-0.3-1.4-0.3H116v7.1h0.9v-2.8h1.7c0.5,0,1-0.1,1.4-0.2
			c0.4-0.2,0.7-0.4,0.8-0.7c0.2-0.3,0.3-0.7,0.3-1.2C121.1,53.5,121,53.1,120.8,52.8z M120,54.6c-0.1,0.2-0.3,0.4-0.5,0.5
			c-0.2,0.1-0.5,0.2-0.9,0.2h-1.7v-2.8h1.7c0.4,0,0.7,0.1,0.9,0.2s0.4,0.3,0.5,0.5c0.1,0.2,0.2,0.5,0.2,0.7
			C120.2,54.2,120.1,54.4,120,54.6z"/>
		<path class="st0" d="M113.7,56.6h0.9c-0.1,0.5-0.2,0.8-0.4,1.2s-0.5,0.6-0.9,0.8S112.5,59,112,59c-0.4,0-0.8-0.1-1.2-0.2
			c-0.3-0.2-0.6-0.4-0.9-0.7c-0.2-0.3-0.4-0.6-0.6-1c-0.1-0.4-0.2-0.9-0.2-1.4v-0.7c0-0.5,0.1-1,0.2-1.4s0.3-0.8,0.6-1
			s0.6-0.5,0.9-0.7c0.3-0.2,0.8-0.2,1.2-0.2c0.5,0,1,0.1,1.4,0.3s0.7,0.5,0.9,0.8s0.3,0.8,0.4,1.2h-0.9c-0.1-0.3-0.1-0.6-0.3-0.9
			c-0.1-0.2-0.3-0.4-0.5-0.6c-0.2-0.1-0.5-0.2-0.9-0.2c-0.3,0-0.6,0.1-0.8,0.2s-0.4,0.3-0.6,0.5c-0.2,0.2-0.3,0.5-0.4,0.8
			c-0.1,0.3-0.1,0.7-0.1,1v0.7c0,0.3,0,0.7,0.1,1c0.1,0.3,0.2,0.6,0.3,0.8c0.2,0.2,0.3,0.4,0.6,0.5c0.2,0.1,0.5,0.2,0.8,0.2
			c0.4,0,0.7-0.1,1-0.2c0.2-0.1,0.4-0.3,0.5-0.5C113.6,57.2,113.7,56.9,113.7,56.6z"/>
		<path class="st0" d="M104.2,55.8c0.2-0.1,0.4-0.2,0.6-0.3c0.2-0.2,0.4-0.4,0.6-0.7s0.2-0.6,0.2-0.9c0-0.5-0.1-0.8-0.3-1.2
			c-0.2-0.3-0.5-0.6-0.8-0.7c-0.4-0.2-0.8-0.2-1.4-0.2h-2.4v7.1h0.9V56h1.7l1.6,2.9h1v-0.1L104.2,55.8z M101.7,55.2v-2.7h1.4
			c0.4,0,0.7,0.1,0.9,0.2c0.2,0.1,0.4,0.3,0.5,0.5c0.1,0.2,0.2,0.5,0.2,0.7c0,0.2-0.1,0.5-0.2,0.7c-0.1,0.2-0.3,0.4-0.5,0.5
			s-0.5,0.2-0.8,0.2C103.1,55.2,101.7,55.2,101.7,55.2z"/>
		<polygon class="st0" points="99.5,58.1 99.5,58.9 95,58.9 95,51.7 99.5,51.7 99.5,52.5 95.9,52.5 95.9,54.8 99,54.8 99,55.6 
			95.9,55.6 95.9,58.1 		"/>
		<path class="st0" d="M93.4,56c-0.1-0.3-0.3-0.5-0.6-0.6c-0.2-0.1-0.3-0.2-0.5-0.2c0.1,0,0.1-0.1,0.2-0.1c0.3-0.2,0.5-0.3,0.6-0.6
			c0.2-0.2,0.2-0.5,0.2-0.8c0-0.3-0.1-0.6-0.2-0.9c-0.1-0.2-0.3-0.4-0.5-0.6s-0.4-0.3-0.7-0.3c-0.3-0.1-0.6-0.1-1-0.1h-2.3v7.1h2.5
			c0.5,0,0.9-0.1,1.2-0.2c0.3-0.2,0.6-0.4,0.8-0.7c0.2-0.3,0.3-0.7,0.3-1.1C93.6,56.5,93.5,56.2,93.4,56z M89.7,52.5h1.4
			c0.3,0,0.6,0,0.8,0.1c0.2,0.1,0.4,0.2,0.5,0.4s0.2,0.4,0.2,0.6c0,0.2-0.1,0.4-0.2,0.6c-0.1,0.2-0.3,0.3-0.5,0.4
			c-0.2,0.1-0.4,0.1-0.7,0.1h-1.4L89.7,52.5L89.7,52.5z M92.5,57.5c-0.1,0.2-0.3,0.3-0.5,0.4c-0.2,0.1-0.5,0.2-0.8,0.2h-1.6v-2.6
			h1.6c0.3,0,0.6,0,0.8,0.2c0.2,0.1,0.3,0.2,0.4,0.5s0.1,0.4,0.1,0.7C92.6,57.1,92.6,57.3,92.5,57.5z"/>
		<polygon class="st0" points="87.5,58.1 87.5,58.9 83,58.9 83,51.7 87.5,51.7 87.5,52.5 83.9,52.5 83.9,54.8 87,54.8 87,55.6 
			83.9,55.6 83.9,58.1 		"/>
		<polygon class="st0" points="81.9,51.7 80.2,58.9 79.3,58.9 77.9,53.7 77.8,53.1 77.6,53.7 76.1,58.9 75.2,58.9 73.5,51.7 
			74.4,51.7 75.6,56.6 75.7,57.5 75.9,56.7 77.3,51.7 78.1,51.7 79.5,56.7 79.7,57.6 79.9,56.6 81,51.7 		"/>
	</g>
	<g id="WCC">
		<g>
			<path class="st1" d="M156.6,29.4h7.2c-0.1,2.1-0.7,3.9-1.7,5.5s-2.4,2.8-4.3,3.7c-1.8,0.9-3.9,1.3-6.4,1.3c-2,0-3.8-0.3-5.4-1
				c-1.6-0.7-2.9-1.6-4-2.9c-1.1-1.3-1.9-2.8-2.5-4.6c-0.6-1.8-0.8-3.8-0.8-6.1v-1.6c0-2.2,0.3-4.3,0.9-6.1c0.6-1.8,1.4-3.4,2.6-4.6
				c1.1-1.3,2.4-2.2,4-2.9c1.6-0.7,3.3-1,5.2-1c2.6,0,4.8,0.5,6.6,1.4c1.8,0.9,3.2,2.2,4.2,3.9c1,1.6,1.6,3.5,1.8,5.5h-7.2
				c0-1.1-0.2-2.1-0.6-2.8c-0.4-0.8-0.9-1.4-1.7-1.7c-0.8-0.4-1.8-0.6-3.1-0.6c-0.9,0-1.7,0.2-2.3,0.5s-1.2,0.9-1.6,1.6
				c-0.4,0.7-0.8,1.6-1,2.8c-0.2,1.1-0.3,2.5-0.3,4.1v1.7c0,1.6,0.1,3,0.3,4.1c0.2,1.1,0.5,2,0.9,2.8s1,1.2,1.6,1.6
				c0.7,0.3,1.5,0.5,2.5,0.5c1.1,0,2-0.2,2.8-0.5c0.8-0.4,1.3-0.9,1.8-1.6C156.4,31.4,156.6,30.5,156.6,29.4z"/>
			<path class="st1" d="M129,29.4h7.2c-0.1,2.1-0.7,3.9-1.7,5.5s-2.4,2.8-4.3,3.7c-1.8,0.9-3.9,1.3-6.4,1.3c-2,0-3.8-0.3-5.4-1
				c-1.6-0.7-2.9-1.6-4-2.9c-1.1-1.3-1.9-2.8-2.5-4.6c-0.6-1.8-0.8-3.8-0.8-6.1v-1.6c0-2.2,0.3-4.3,0.9-6.1c0.6-1.8,1.4-3.4,2.6-4.6
				c1.1-1.3,2.4-2.2,4-2.9c1.6-0.7,3.3-1,5.2-1c2.6,0,4.8,0.5,6.6,1.4c1.8,0.9,3.2,2.2,4.2,3.9c1,1.6,1.6,3.5,1.8,5.5H129
				c0-1.1-0.2-2.1-0.6-2.8c-0.4-0.8-0.9-1.4-1.7-1.7c-0.8-0.4-1.8-0.6-3.1-0.6c-0.9,0-1.7,0.2-2.3,0.5c-0.7,0.3-1.2,0.9-1.7,1.6
				c-0.4,0.7-0.8,1.6-1,2.8c-0.2,1.1-0.3,2.5-0.3,4.1v1.7c0,1.6,0.1,3,0.3,4.1s0.5,2,0.9,2.8s1,1.2,1.7,1.6c0.7,0.3,1.5,0.5,2.5,0.5
				c1.1,0,2-0.2,2.8-0.5c0.8-0.4,1.3-0.9,1.7-1.6C128.7,31.4,128.9,30.5,129,29.4z"/>
			<polygon class="st1" points="109.1,9.5 102.8,39.5 95.3,39.5 91.3,22.4 87.3,39.5 79.9,39.5 73.5,9.5 80.7,9.5 84.1,28.3 
				88.2,9.5 94.3,9.5 98.5,28.3 102,9.5 			"/>
		</g>
	</g>
	<path id="pic" class="st2" d="M36.3,0h12.1v58.9h8.7V10.1h-3.6V9h4.7v51H47.3V1.1h-9.9V60h-4.1V21.1h-9V60h-4.1V28.9h-9.3V60H0V9
		h28.5v1.1H1.1v48.8h8.7V27.8h11.4v31.2h2V20h11.1v38.9h2L36.3,0L36.3,0z"/>
</g>
</svg>
