<svg width="190" height="60" viewBox="0 0 190 60" fill="none" xmlns="http://www.w3.org/2000/svg">
<path d="M189.24 55.31V57.92C189.15 58.05 189.01 58.2 188.82 58.36C188.63 58.52 188.36 58.66 188.02 58.78C187.68 58.9 187.25 58.96 186.71 58.96C186.27 58.96 185.87 58.88 185.51 58.73C185.15 58.58 184.83 58.35 184.56 58.06C184.29 57.77 184.09 57.41 183.94 56.99C183.8 56.57 183.72 56.09 183.72 55.56V55.01C183.72 54.48 183.78 54 183.91 53.58C184.04 53.16 184.22 52.81 184.47 52.52C184.72 52.23 185.02 52 185.38 51.85C185.74 51.7 186.15 51.62 186.61 51.62C187.16 51.62 187.61 51.71 187.98 51.9C188.35 52.09 188.64 52.34 188.85 52.67C189.06 53 189.19 53.38 189.25 53.8H188.3C188.26 53.54 188.17 53.31 188.04 53.09C187.92 52.88 187.74 52.71 187.5 52.58C187.27 52.45 186.97 52.38 186.6 52.38C186.27 52.38 185.98 52.44 185.74 52.56C185.5 52.68 185.3 52.85 185.14 53.08C184.98 53.31 184.86 53.58 184.79 53.9C184.71 54.22 184.68 54.58 184.68 54.98V55.54C184.68 55.95 184.73 56.32 184.82 56.64C184.92 56.96 185.06 57.24 185.24 57.47C185.42 57.7 185.64 57.87 185.88 57.98C186.13 58.1 186.41 58.16 186.72 58.16C187.06 58.16 187.33 58.13 187.54 58.08C187.75 58.02 187.91 57.95 188.03 57.87C188.15 57.79 188.24 57.71 188.3 57.64V56.04H186.64V55.28H189.24V55.31Z" fill="#F3F0ED"/>
<path d="M182.27 51.73V58.86H181.32L177.71 53.36V58.86H176.76V51.73H177.71L181.33 57.25V51.73H182.27Z" fill="#F3F0ED"/>
<path d="M175.03 51.73V58.86H174.08V51.73H175.03Z" fill="#F3F0ED"/>
<path d="M172.95 51.73V52.5H170.65V58.86H169.72V52.5H167.42V51.73H172.95Z" fill="#F3F0ED"/>
<path d="M168.27 58.09V58.86H163.93V51.73H164.88V58.09H168.27Z" fill="#F3F0ED"/>
<path d="M161.49 51.73H162.43V56.56C162.43 57.1 162.31 57.54 162.07 57.9C161.83 58.26 161.51 58.52 161.12 58.7C160.73 58.88 160.3 58.96 159.84 58.96C159.35 58.96 158.92 58.87 158.52 58.7C158.13 58.52 157.82 58.25 157.59 57.9C157.36 57.54 157.25 57.1 157.25 56.56V51.73H158.19V56.56C158.19 56.93 158.26 57.24 158.4 57.48C158.54 57.72 158.73 57.9 158.98 58.02C159.23 58.14 159.52 58.2 159.85 58.2C160.18 58.2 160.47 58.14 160.72 58.02C160.97 57.9 161.16 57.72 161.3 57.48C161.44 57.24 161.51 56.93 161.51 56.56V51.73H161.49Z" fill="#F3F0ED"/>
<path d="M155.23 57.06C155.23 56.89 155.2 56.75 155.15 56.62C155.1 56.49 155.01 56.37 154.88 56.27C154.76 56.17 154.58 56.07 154.36 55.97C154.14 55.88 153.86 55.78 153.52 55.68C153.17 55.58 152.85 55.46 152.56 55.33C152.27 55.2 152.03 55.05 151.83 54.88C151.63 54.71 151.47 54.52 151.36 54.31C151.25 54.09 151.2 53.85 151.2 53.57C151.2 53.29 151.26 53.04 151.37 52.8C151.48 52.56 151.65 52.36 151.86 52.19C152.08 52.01 152.33 51.88 152.63 51.78C152.93 51.68 153.26 51.63 153.63 51.63C154.17 51.63 154.62 51.73 155 51.94C155.38 52.14 155.66 52.41 155.86 52.74C156.06 53.07 156.15 53.42 156.15 53.79H155.21C155.21 53.52 155.15 53.29 155.04 53.08C154.93 52.87 154.75 52.71 154.52 52.59C154.29 52.47 153.99 52.41 153.63 52.41C153.29 52.41 153.01 52.46 152.79 52.56C152.57 52.66 152.41 52.8 152.3 52.97C152.2 53.14 152.14 53.34 152.14 53.56C152.14 53.71 152.17 53.85 152.23 53.97C152.3 54.09 152.4 54.2 152.53 54.31C152.67 54.41 152.84 54.51 153.05 54.6C153.26 54.69 153.52 54.77 153.81 54.85C154.22 54.96 154.57 55.09 154.86 55.23C155.15 55.37 155.4 55.53 155.59 55.71C155.78 55.88 155.93 56.08 156.02 56.3C156.12 56.52 156.16 56.77 156.16 57.04C156.16 57.33 156.1 57.59 155.98 57.83C155.86 58.07 155.69 58.27 155.47 58.43C155.25 58.6 154.99 58.73 154.68 58.82C154.37 58.91 154.03 58.95 153.66 58.95C153.33 58.95 153 58.9 152.68 58.81C152.36 58.72 152.07 58.58 151.81 58.4C151.55 58.22 151.34 57.99 151.19 57.72C151.04 57.45 150.96 57.14 150.96 56.78H151.9C151.9 57.02 151.95 57.24 152.04 57.41C152.13 57.58 152.26 57.73 152.43 57.84C152.6 57.95 152.79 58.04 153 58.09C153.21 58.14 153.43 58.17 153.66 58.17C153.99 58.17 154.27 58.12 154.5 58.03C154.73 57.94 154.9 57.81 155.02 57.64C155.17 57.49 155.23 57.29 155.23 57.06Z" fill="#F3F0ED"/>
<path d="M149.73 51.73V58.86H148.78L145.17 53.36V58.86H144.22V51.73H145.17L148.79 57.25V51.73H149.73Z" fill="#F3F0ED"/>
<path d="M142.8 55.07V55.52C142.8 56.06 142.73 56.54 142.6 56.96C142.47 57.38 142.27 57.75 142.02 58.04C141.77 58.34 141.46 58.56 141.11 58.72C140.76 58.88 140.37 58.96 139.93 58.96C139.51 58.96 139.12 58.88 138.76 58.72C138.41 58.56 138.1 58.34 137.85 58.04C137.59 57.74 137.4 57.38 137.25 56.96C137.11 56.54 137.04 56.06 137.04 55.52V55.07C137.04 54.53 137.11 54.06 137.25 53.63C137.39 53.21 137.59 52.84 137.85 52.55C138.11 52.25 138.41 52.02 138.76 51.86C139.11 51.7 139.5 51.62 139.93 51.62C140.37 51.62 140.76 51.7 141.11 51.86C141.46 52.02 141.77 52.25 142.02 52.55C142.28 52.85 142.47 53.21 142.61 53.63C142.74 54.06 142.8 54.53 142.8 55.07ZM141.86 55.52V55.06C141.86 54.64 141.82 54.26 141.73 53.93C141.64 53.6 141.52 53.33 141.35 53.11C141.18 52.89 140.98 52.72 140.74 52.61C140.5 52.5 140.23 52.44 139.92 52.44C139.62 52.44 139.36 52.5 139.12 52.61C138.88 52.72 138.68 52.89 138.51 53.11C138.34 53.33 138.21 53.61 138.12 53.93C138.03 54.26 137.98 54.63 137.98 55.06V55.52C137.98 55.95 138.03 56.33 138.12 56.66C138.21 56.99 138.34 57.26 138.51 57.49C138.68 57.71 138.89 57.88 139.12 57.99C139.36 58.1 139.63 58.16 139.92 58.16C140.23 58.16 140.5 58.1 140.74 57.99C140.98 57.88 141.18 57.71 141.35 57.49C141.52 57.26 141.64 56.99 141.73 56.66C141.82 56.33 141.86 55.95 141.86 55.52Z" fill="#F3F0ED"/>
<path d="M135.05 56.59H135.99C135.94 57.04 135.81 57.44 135.6 57.8C135.39 58.16 135.09 58.44 134.71 58.65C134.33 58.86 133.85 58.96 133.27 58.96C132.85 58.96 132.47 58.88 132.12 58.72C131.78 58.56 131.49 58.34 131.24 58.05C130.99 57.76 130.8 57.41 130.67 57.01C130.54 56.6 130.47 56.15 130.47 55.65V54.94C130.47 54.44 130.54 53.99 130.67 53.58C130.8 53.17 131 52.82 131.25 52.53C131.5 52.24 131.81 52.02 132.16 51.86C132.51 51.7 132.91 51.62 133.36 51.62C133.9 51.62 134.36 51.72 134.73 51.92C135.1 52.12 135.39 52.4 135.6 52.76C135.81 53.12 135.94 53.53 135.99 54H135.05C135 53.67 134.92 53.38 134.79 53.14C134.67 52.9 134.49 52.71 134.26 52.58C134.03 52.45 133.73 52.38 133.36 52.38C133.04 52.38 132.76 52.44 132.52 52.56C132.28 52.68 132.08 52.85 131.92 53.07C131.76 53.29 131.64 53.56 131.56 53.87C131.48 54.18 131.44 54.52 131.44 54.9V55.62C131.44 55.97 131.48 56.3 131.55 56.6C131.63 56.91 131.74 57.18 131.89 57.41C132.04 57.64 132.23 57.82 132.47 57.96C132.7 58.09 132.98 58.16 133.3 58.16C133.7 58.16 134.02 58.1 134.26 57.97C134.5 57.84 134.68 57.66 134.8 57.42C134.91 57.21 135 56.93 135.05 56.59Z" fill="#F3F0ED"/>
<path d="M124.53 51.73H123.7L120.97 58.86H121.94L122.62 56.99H125.62L126.3 58.86H127.27L124.53 51.73ZM122.9 56.22L124.12 52.89L125.34 56.22H122.9Z" fill="#F3F0ED"/>
<path d="M120.85 52.78C120.66 52.45 120.37 52.19 120 52.01C119.63 51.82 119.17 51.73 118.63 51.73H115.99V58.86H116.94V56.06H118.62C119.16 56.06 119.62 55.98 119.99 55.81C120.37 55.64 120.65 55.39 120.84 55.07C121.03 54.75 121.13 54.36 121.13 53.9C121.14 53.48 121.04 53.11 120.85 52.78ZM120.02 54.63C119.92 54.84 119.75 55 119.52 55.12C119.29 55.24 118.99 55.3 118.62 55.3H116.93V52.5H118.62C118.99 52.5 119.29 52.57 119.52 52.7C119.75 52.83 119.92 53 120.02 53.22C120.13 53.44 120.18 53.67 120.18 53.91C120.19 54.18 120.13 54.42 120.02 54.63Z" fill="#F3F0ED"/>
<path d="M113.74 56.59H114.68C114.63 57.04 114.5 57.44 114.29 57.8C114.08 58.16 113.78 58.44 113.4 58.65C113.02 58.86 112.54 58.96 111.96 58.96C111.54 58.96 111.16 58.88 110.81 58.72C110.47 58.56 110.18 58.34 109.93 58.05C109.68 57.76 109.49 57.41 109.36 57.01C109.23 56.6 109.16 56.15 109.16 55.65V54.94C109.16 54.44 109.23 53.99 109.36 53.58C109.49 53.17 109.69 52.82 109.94 52.53C110.19 52.24 110.5 52.02 110.85 51.86C111.2 51.7 111.6 51.62 112.05 51.62C112.59 51.62 113.05 51.72 113.42 51.92C113.79 52.12 114.08 52.4 114.29 52.76C114.5 53.12 114.63 53.53 114.68 54H113.74C113.69 53.67 113.61 53.38 113.48 53.14C113.36 52.9 113.18 52.71 112.95 52.58C112.72 52.45 112.42 52.38 112.05 52.38C111.73 52.38 111.45 52.44 111.21 52.56C110.97 52.68 110.77 52.85 110.6 53.07C110.44 53.29 110.32 53.56 110.24 53.87C110.16 54.18 110.12 54.52 110.12 54.9V55.62C110.12 55.97 110.16 56.3 110.23 56.6C110.31 56.91 110.42 57.18 110.57 57.41C110.72 57.64 110.91 57.82 111.15 57.96C111.38 58.09 111.66 58.16 111.98 58.16C112.38 58.16 112.7 58.1 112.94 57.97C113.18 57.84 113.36 57.66 113.48 57.42C113.6 57.21 113.69 56.93 113.74 56.59Z" fill="#F3F0ED"/>
<mask id="path-14-inside-1_41_82" fill="white">
<path d="M104.23 55.77C104.45 55.69 104.65 55.58 104.82 55.45C105.07 55.26 105.26 55.03 105.39 54.76C105.52 54.49 105.59 54.19 105.59 53.87C105.59 53.41 105.49 53.02 105.29 52.7C105.1 52.38 104.81 52.14 104.44 51.98C104.07 51.82 103.62 51.74 103.08 51.74H100.71V58.87H101.66V55.98H103.34L104.9 58.87H105.91V58.8L104.23 55.77ZM101.66 55.2V52.5H103.08C103.45 52.5 103.74 52.56 103.97 52.67C104.2 52.78 104.37 52.94 104.48 53.15C104.59 53.35 104.64 53.6 104.64 53.87C104.64 54.11 104.58 54.34 104.47 54.54C104.36 54.74 104.19 54.9 103.96 55.02C103.73 55.14 103.45 55.2 103.11 55.2H101.66Z"/>
</mask>
<path d="M104.23 55.77C104.45 55.69 104.65 55.58 104.82 55.45C105.07 55.26 105.26 55.03 105.39 54.76C105.52 54.49 105.59 54.19 105.59 53.87C105.59 53.41 105.49 53.02 105.29 52.7C105.1 52.38 104.81 52.14 104.44 51.98C104.07 51.82 103.62 51.74 103.08 51.74H100.71V58.87H101.66V55.98H103.34L104.9 58.87H105.91V58.8L104.23 55.77ZM101.66 55.2V52.5H103.08C103.45 52.5 103.74 52.56 103.97 52.67C104.2 52.78 104.37 52.94 104.48 53.15C104.59 53.35 104.64 53.6 104.64 53.87C104.64 54.11 104.58 54.34 104.47 54.54C104.36 54.74 104.19 54.9 103.96 55.02C103.73 55.14 103.45 55.2 103.11 55.2H101.66Z" fill="#F3F0ED"/>
<path d="M104.23 55.77L103.888 54.8302L102.787 55.2305L103.355 56.2549L104.23 55.77ZM104.82 55.45L104.215 54.6538L104.213 54.6556L104.82 55.45ZM105.29 52.7L104.43 53.2105L104.436 53.2203L104.442 53.23L105.29 52.7ZM100.71 51.74V50.74H99.71V51.74H100.71ZM100.71 58.87H99.71V59.87H100.71V58.87ZM101.66 58.87V59.87H102.66V58.87H101.66ZM101.66 55.98V54.98H100.66V55.98H101.66ZM103.34 55.98L104.22 55.505L103.937 54.98H103.34V55.98ZM104.9 58.87L104.02 59.345L104.303 59.87H104.9V58.87ZM105.91 58.87V59.87H106.91V58.87H105.91ZM105.91 58.8H106.91V58.5413L106.785 58.3151L105.91 58.8ZM101.66 55.2H100.66V56.2H101.66V55.2ZM101.66 52.5V51.5H100.66V52.5H101.66ZM104.48 53.15L103.594 53.614L103.599 53.623L103.604 53.6319L104.48 53.15ZM104.572 56.7098C104.884 56.5962 105.174 56.4379 105.427 56.2443L104.213 54.6556C104.126 54.722 104.016 54.7838 103.888 54.8302L104.572 56.7098ZM105.425 56.2461C105.795 55.9652 106.089 55.6132 106.291 55.1938L104.489 54.3262C104.431 54.4468 104.345 54.5548 104.215 54.6538L105.425 56.2461ZM106.291 55.1938C106.487 54.7869 106.59 54.3385 106.59 53.87H104.59C104.59 54.0415 104.553 54.1931 104.489 54.3262L106.291 55.1938ZM106.59 53.87C106.59 53.2637 106.457 52.6806 106.138 52.17L104.442 53.23C104.523 53.3594 104.59 53.5562 104.59 53.87H106.59ZM106.15 52.1895C105.837 51.6631 105.371 51.2933 104.837 51.0621L104.043 52.8978C104.249 52.9867 104.363 53.0969 104.43 53.2105L106.15 52.1895ZM104.837 51.0621C104.308 50.8333 103.714 50.74 103.08 50.74V52.74C103.526 52.74 103.832 52.8066 104.043 52.8978L104.837 51.0621ZM103.08 50.74H100.71V52.74H103.08V50.74ZM99.71 51.74V58.87H101.71V51.74H99.71ZM100.71 59.87H101.66V57.87H100.71V59.87ZM102.66 58.87V55.98H100.66V58.87H102.66ZM101.66 56.98H103.34V54.98H101.66V56.98ZM102.46 56.455L104.02 59.345L105.78 58.395L104.22 55.505L102.46 56.455ZM104.9 59.87H105.91V57.87H104.9V59.87ZM106.91 58.87V58.8H104.91V58.87H106.91ZM106.785 58.3151L105.105 55.2851L103.355 56.2549L105.035 59.2849L106.785 58.3151ZM102.66 55.2V52.5H100.66V55.2H102.66ZM101.66 53.5H103.08V51.5H101.66V53.5ZM103.08 53.5C103.345 53.5 103.478 53.5434 103.539 53.5721L104.401 51.7679C104.002 51.5766 103.555 51.5 103.08 51.5V53.5ZM103.539 53.5721C103.569 53.5867 103.581 53.5976 103.585 53.6007C103.587 53.6032 103.59 53.606 103.594 53.614L105.366 52.686C105.148 52.27 104.811 51.9636 104.401 51.7679L103.539 53.5721ZM103.604 53.6319C103.609 53.6416 103.64 53.712 103.64 53.87H105.64C105.64 53.488 105.571 53.0584 105.356 52.6681L103.604 53.6319ZM103.64 53.87C103.64 53.9432 103.622 54.0072 103.594 54.0581L105.346 55.0219C105.538 54.6728 105.64 54.2768 105.64 53.87H103.64ZM103.594 54.0581C103.591 54.0625 103.577 54.0917 103.497 54.1334L104.423 55.9066C104.803 55.7083 105.129 55.4175 105.346 55.0219L103.594 54.0581ZM103.497 54.1334C103.446 54.1604 103.334 54.2 103.11 54.2V56.2C103.566 56.2 104.014 56.1196 104.423 55.9066L103.497 54.1334ZM103.11 54.2H101.66V56.2H103.11V54.2Z" fill="#F3F0ED" mask="url(#path-14-inside-1_41_82)"/>
<mask id="path-16-inside-2_41_82" fill="white">
<path d="M99.54 58.09V58.86H94.99V51.73H99.49V52.5H95.94V54.79H99.04V55.56H95.94V58.09H99.54Z"/>
</mask>
<path d="M99.54 58.09V58.86H94.99V51.73H99.49V52.5H95.94V54.79H99.04V55.56H95.94V58.09H99.54Z" fill="#F3F0ED"/>
<path d="M99.54 58.09H100.54V57.09H99.54V58.09ZM99.54 58.86V59.86H100.54V58.86H99.54ZM94.99 58.86H93.99V59.86H94.99V58.86ZM94.99 51.73V50.73H93.99V51.73H94.99ZM99.49 51.73H100.49V50.73H99.49V51.73ZM99.49 52.5V53.5H100.49V52.5H99.49ZM95.94 52.5V51.5H94.94V52.5H95.94ZM95.94 54.79H94.94V55.79H95.94V54.79ZM99.04 54.79H100.04V53.79H99.04V54.79ZM99.04 55.56V56.56H100.04V55.56H99.04ZM95.94 55.56V54.56H94.94V55.56H95.94ZM95.94 58.09H94.94V59.09H95.94V58.09ZM98.54 58.09V58.86H100.54V58.09H98.54ZM99.54 57.86H94.99V59.86H99.54V57.86ZM95.99 58.86V51.73H93.99V58.86H95.99ZM94.99 52.73H99.49V50.73H94.99V52.73ZM98.49 51.73V52.5H100.49V51.73H98.49ZM99.49 51.5H95.94V53.5H99.49V51.5ZM94.94 52.5V54.79H96.94V52.5H94.94ZM95.94 55.79H99.04V53.79H95.94V55.79ZM98.04 54.79V55.56H100.04V54.79H98.04ZM99.04 54.56H95.94V56.56H99.04V54.56ZM94.94 55.56V58.09H96.94V55.56H94.94ZM95.94 59.09H99.54V57.09H95.94V59.09Z" fill="#F3F0ED" mask="url(#path-16-inside-2_41_82)"/>
<path d="M89.21 52.21H89.66V52.5H89.21V52.21Z" fill="#F3F0ED" stroke="#F3F0ED"/>
<mask id="path-19-inside-3_41_82" fill="white">
<path d="M87.54 58.09V58.86H82.99V51.73H87.49V52.5H83.94V54.79H87.04V55.56H83.94V58.09H87.54Z"/>
</mask>
<path d="M87.54 58.09V58.86H82.99V51.73H87.49V52.5H83.94V54.79H87.04V55.56H83.94V58.09H87.54Z" fill="#F3F0ED"/>
<path d="M87.54 58.09H88.54V57.09H87.54V58.09ZM87.54 58.86V59.86H88.54V58.86H87.54ZM82.99 58.86H81.99V59.86H82.99V58.86ZM82.99 51.73V50.73H81.99V51.73H82.99ZM87.49 51.73H88.49V50.73H87.49V51.73ZM87.49 52.5V53.5H88.49V52.5H87.49ZM83.94 52.5V51.5H82.94V52.5H83.94ZM83.94 54.79H82.94V55.79H83.94V54.79ZM87.04 54.79H88.04V53.79H87.04V54.79ZM87.04 55.56V56.56H88.04V55.56H87.04ZM83.94 55.56V54.56H82.94V55.56H83.94ZM83.94 58.09H82.94V59.09H83.94V58.09ZM86.54 58.09V58.86H88.54V58.09H86.54ZM87.54 57.86H82.99V59.86H87.54V57.86ZM83.99 58.86V51.73H81.99V58.86H83.99ZM82.99 52.73H87.49V50.73H82.99V52.73ZM86.49 51.73V52.5H88.49V51.73H86.49ZM87.49 51.5H83.94V53.5H87.49V51.5ZM82.94 52.5V54.79H84.94V52.5H82.94ZM83.94 55.79H87.04V53.79H83.94V55.79ZM86.04 54.79V55.56H88.04V54.79H86.04ZM87.04 54.56H83.94V56.56H87.04V54.56ZM82.94 55.56V58.09H84.94V55.56H82.94ZM83.94 59.09H87.54V57.09H83.94V59.09Z" fill="#F3F0ED" mask="url(#path-19-inside-3_41_82)"/>
<path d="M77.7597 52.23L77.9747 53.0057L77.505 53.0098L77.7273 52.23H77.7597ZM75.6427 58.36L75.4652 57.6329L75.9437 57.6539L75.7359 58.36H75.6427ZM79.7182 58.36L79.5243 57.6738L79.9784 57.659L79.8073 58.36H79.7182Z" fill="#F3F0ED" stroke="#F3F0ED"/>
<path d="M156.62 29.36H163.82C163.72 31.45 163.16 33.29 162.13 34.88C161.1 36.47 159.68 37.72 157.85 38.61C156.04 39.49 153.9 39.93 151.43 39.93C149.43 39.93 147.64 39.59 146.06 38.92C144.5 38.25 143.17 37.28 142.07 36.02C140.99 34.76 140.16 33.23 139.58 31.43C139.02 29.63 138.74 27.6 138.74 25.35V23.72C138.74 21.47 139.03 19.44 139.62 17.64C140.22 15.83 141.07 14.29 142.17 13.03C143.28 11.75 144.61 10.78 146.16 10.1C147.71 9.43 149.43 9.09 151.32 9.09C153.93 9.09 156.13 9.56 157.92 10.49C159.72 11.42 161.11 12.71 162.09 14.34C163.08 15.96 163.66 17.81 163.84 19.88H156.64C156.61 18.75 156.42 17.81 156.06 17.06C155.7 16.29 155.14 15.71 154.37 15.33C153.6 14.95 152.58 14.75 151.31 14.75C150.42 14.75 149.64 14.91 148.99 15.24C148.33 15.57 147.78 16.09 147.34 16.81C146.9 17.52 146.57 18.45 146.35 19.59C146.14 20.72 146.04 22.08 146.04 23.67V25.34C146.04 26.93 146.14 28.29 146.33 29.42C146.52 30.55 146.83 31.47 147.26 32.18C147.69 32.89 148.23 33.42 148.91 33.77C149.6 34.1 150.43 34.26 151.42 34.26C152.52 34.26 153.44 34.09 154.2 33.75C154.95 33.39 155.54 32.86 155.95 32.14C156.38 31.41 156.6 30.48 156.62 29.36Z" fill="#D88546"/>
<path d="M128.98 29.36H136.18C136.08 31.45 135.52 33.29 134.49 34.88C133.46 36.47 132.04 37.72 130.21 38.61C128.4 39.49 126.26 39.93 123.79 39.93C121.79 39.93 120 39.59 118.42 38.92C116.86 38.25 115.53 37.28 114.43 36.02C113.35 34.76 112.52 33.23 111.94 31.43C111.38 29.63 111.1 27.6 111.1 25.35V23.72C111.1 21.47 111.39 19.44 111.98 17.64C112.58 15.83 113.43 14.29 114.53 13.03C115.64 11.75 116.97 10.78 118.52 10.1C120.07 9.43 121.79 9.09 123.68 9.09C126.29 9.09 128.49 9.56 130.28 10.49C132.08 11.42 133.47 12.71 134.45 14.34C135.44 15.96 136.02 17.81 136.2 19.88H129C128.97 18.75 128.78 17.81 128.42 17.06C128.06 16.29 127.5 15.71 126.73 15.33C125.96 14.95 124.94 14.75 123.67 14.75C122.78 14.75 122 14.91 121.35 15.24C120.69 15.57 120.14 16.09 119.7 16.81C119.26 17.53 118.93 18.45 118.71 19.59C118.5 20.72 118.4 22.08 118.4 23.67V25.34C118.4 26.93 118.5 28.29 118.69 29.42C118.88 30.55 119.19 31.47 119.62 32.18C120.05 32.89 120.59 33.42 121.27 33.77C121.96 34.1 122.79 34.26 123.78 34.26C124.88 34.26 125.8 34.09 126.56 33.75C127.31 33.39 127.9 32.86 128.31 32.14C128.74 31.41 128.96 30.48 128.98 29.36Z" fill="#D88546"/>
<path d="M109.11 9.51001L102.76 39.51H95.29L91.28 22.41L87.35 39.51H79.87L73.51 9.51001H80.67L84.11 28.29L88.22 9.51001H94.35L98.54 28.33L101.98 9.51001H109.11Z" fill="#D88546"/>
<path fill-rule="evenodd" clip-rule="evenodd" d="M36.34 0H48.4V58.93H57.1V10.08H53.51V9.01H58.17V60H47.33V1.07H37.41V60H33.29V21.07H24.28V60H20.16V28.85H10.85V60H0V9.01H28.47V10.08H1.07V58.93H9.77V27.79H21.22V58.94H23.2V20H34.35V58.93H36.33V0H36.34Z" fill="#F3F0ED"/>
</svg>
