<svg width="190" height="60" viewBox="0 0 190 60" fill="none" xmlns="http://www.w3.org/2000/svg">
<g clip-path="url(#clip0_42_134)">
<path d="M189.99 55.31V57.92C189.9 58.05 189.759 58.2 189.568 58.36C189.378 58.52 189.106 58.66 188.765 58.78C188.424 58.9 187.992 58.96 187.45 58.96C187.008 58.96 186.607 58.88 186.245 58.73C185.884 58.58 185.562 58.35 185.291 58.06C185.02 57.77 184.82 57.41 184.669 56.99C184.528 56.57 184.448 56.09 184.448 55.56V55.01C184.448 54.48 184.508 54 184.639 53.58C184.769 53.16 184.95 52.81 185.201 52.52C185.452 52.23 185.753 52 186.115 51.85C186.476 51.7 186.888 51.62 187.35 51.62C187.902 51.62 188.354 51.71 188.725 51.9C189.096 52.09 189.388 52.34 189.598 52.67C189.809 53 189.94 53.38 190 53.8H189.046C189.006 53.54 188.916 53.31 188.785 53.09C188.665 52.88 188.484 52.71 188.243 52.58C188.012 52.45 187.711 52.38 187.34 52.38C187.008 52.38 186.717 52.44 186.476 52.56C186.235 52.68 186.034 52.85 185.874 53.08C185.713 53.31 185.593 53.58 185.522 53.9C185.442 54.22 185.412 54.58 185.412 54.98V55.54C185.412 55.95 185.462 56.32 185.552 56.64C185.653 56.96 185.793 57.24 185.974 57.47C186.155 57.7 186.376 57.87 186.617 57.98C186.868 58.1 187.149 58.16 187.46 58.16C187.801 58.16 188.072 58.13 188.283 58.08C188.494 58.02 188.655 57.95 188.775 57.87C188.896 57.79 188.986 57.71 189.046 57.64V56.04H187.38V55.28H189.99V55.31Z" fill="#F3F0ED"/>
<path d="M182.992 51.73V58.86H182.039L178.414 53.36V58.86H177.46V51.73H178.414L182.049 57.25V51.73H182.992Z" fill="#F3F0ED"/>
<path d="M175.724 51.73V58.86H174.77V51.73H175.724Z" fill="#F3F0ED"/>
<path d="M173.635 51.73V52.5H171.326V58.86H170.393V52.5H168.083V51.73H173.635Z" fill="#F3F0ED"/>
<path d="M168.937 58.09V58.86H164.58V51.73H165.533V58.09H168.937Z" fill="#F3F0ED"/>
<path d="M162.13 51.73H163.074V56.56C163.074 57.1 162.953 57.54 162.712 57.9C162.471 58.26 162.15 58.52 161.759 58.7C161.367 58.88 160.935 58.96 160.473 58.96C159.981 58.96 159.55 58.87 159.148 58.7C158.757 58.52 158.445 58.25 158.215 57.9C157.984 57.54 157.873 57.1 157.873 56.56V51.73H158.817V56.56C158.817 56.93 158.887 57.24 159.028 57.48C159.168 57.72 159.359 57.9 159.61 58.02C159.861 58.14 160.152 58.2 160.483 58.2C160.815 58.2 161.106 58.14 161.357 58.02C161.608 57.9 161.799 57.72 161.939 57.48C162.08 57.24 162.15 56.93 162.15 56.56V51.73H162.13Z" fill="#F3F0ED"/>
<path d="M155.845 57.06C155.845 56.89 155.815 56.75 155.765 56.62C155.715 56.49 155.624 56.37 155.494 56.27C155.373 56.17 155.193 56.07 154.972 55.97C154.751 55.88 154.47 55.78 154.128 55.68C153.777 55.58 153.456 55.46 153.165 55.33C152.873 55.2 152.632 55.05 152.432 54.88C152.231 54.71 152.07 54.52 151.96 54.31C151.849 54.09 151.799 53.85 151.799 53.57C151.799 53.29 151.859 53.04 151.97 52.8C152.08 52.56 152.251 52.36 152.462 52.19C152.683 52.01 152.934 51.88 153.235 51.78C153.536 51.68 153.867 51.63 154.239 51.63C154.781 51.63 155.233 51.73 155.614 51.94C155.996 52.14 156.277 52.41 156.478 52.74C156.678 53.07 156.769 53.42 156.769 53.79H155.825C155.825 53.52 155.765 53.29 155.654 53.08C155.544 52.87 155.363 52.71 155.132 52.59C154.901 52.47 154.6 52.41 154.239 52.41C153.897 52.41 153.616 52.46 153.395 52.56C153.175 52.66 153.014 52.8 152.904 52.97C152.803 53.14 152.743 53.34 152.743 53.56C152.743 53.71 152.773 53.85 152.833 53.97C152.904 54.09 153.004 54.2 153.134 54.31C153.275 54.41 153.446 54.51 153.657 54.6C153.867 54.69 154.128 54.77 154.42 54.85C154.831 54.96 155.183 55.09 155.474 55.23C155.765 55.37 156.016 55.53 156.207 55.71C156.397 55.88 156.548 56.08 156.638 56.3C156.739 56.52 156.779 56.77 156.779 57.04C156.779 57.33 156.719 57.59 156.598 57.83C156.478 58.07 156.307 58.27 156.086 58.43C155.865 58.6 155.604 58.73 155.293 58.82C154.982 58.91 154.64 58.95 154.269 58.95C153.938 58.95 153.606 58.9 153.285 58.81C152.964 58.72 152.673 58.58 152.412 58.4C152.151 58.22 151.94 57.99 151.789 57.72C151.639 57.45 151.558 57.14 151.558 56.78H152.502C152.502 57.02 152.552 57.24 152.643 57.41C152.733 57.58 152.863 57.73 153.034 57.84C153.205 57.95 153.395 58.04 153.606 58.09C153.817 58.14 154.038 58.17 154.269 58.17C154.6 58.17 154.881 58.12 155.112 58.03C155.343 57.94 155.514 57.81 155.634 57.64C155.785 57.49 155.845 57.29 155.845 57.06Z" fill="#F3F0ED"/>
<path d="M150.323 51.73V58.86H149.37L145.745 53.36V58.86H144.792V51.73H145.745L149.38 57.25V51.73H150.323Z" fill="#F3F0ED"/>
<path d="M143.366 55.07V55.52C143.366 56.06 143.296 56.54 143.165 56.96C143.035 57.38 142.834 57.75 142.583 58.04C142.332 58.34 142.021 58.56 141.669 58.72C141.318 58.88 140.926 58.96 140.485 58.96C140.063 58.96 139.671 58.88 139.31 58.72C138.958 58.56 138.647 58.34 138.396 58.04C138.135 57.74 137.945 57.38 137.794 56.96C137.653 56.54 137.583 56.06 137.583 55.52V55.07C137.583 54.53 137.653 54.06 137.794 53.63C137.934 53.21 138.135 52.84 138.396 52.55C138.657 52.25 138.958 52.02 139.31 51.86C139.661 51.7 140.053 51.62 140.485 51.62C140.926 51.62 141.318 51.7 141.669 51.86C142.021 52.02 142.332 52.25 142.583 52.55C142.844 52.85 143.035 53.21 143.175 53.63C143.306 54.06 143.366 54.53 143.366 55.07ZM142.422 55.52V55.06C142.422 54.64 142.382 54.26 142.292 53.93C142.201 53.6 142.081 53.33 141.91 53.11C141.739 52.89 141.539 52.72 141.298 52.61C141.057 52.5 140.786 52.44 140.474 52.44C140.173 52.44 139.912 52.5 139.671 52.61C139.43 52.72 139.23 52.89 139.059 53.11C138.888 53.33 138.758 53.61 138.667 53.93C138.577 54.26 138.527 54.63 138.527 55.06V55.52C138.527 55.95 138.577 56.33 138.667 56.66C138.758 56.99 138.888 57.26 139.059 57.49C139.23 57.71 139.44 57.88 139.671 57.99C139.912 58.1 140.183 58.16 140.474 58.16C140.786 58.16 141.057 58.1 141.298 57.99C141.539 57.88 141.739 57.71 141.91 57.49C142.081 57.26 142.201 56.99 142.292 56.66C142.382 56.33 142.422 55.95 142.422 55.52Z" fill="#F3F0ED"/>
<path d="M135.585 56.59H136.529C136.479 57.04 136.348 57.44 136.137 57.8C135.927 58.16 135.625 58.44 135.244 58.65C134.862 58.86 134.38 58.96 133.798 58.96C133.376 58.96 132.995 58.88 132.644 58.72C132.302 58.56 132.011 58.34 131.76 58.05C131.509 57.76 131.318 57.41 131.188 57.01C131.057 56.6 130.987 56.15 130.987 55.65V54.94C130.987 54.44 131.057 53.99 131.188 53.58C131.318 53.17 131.519 52.82 131.77 52.53C132.021 52.24 132.332 52.02 132.684 51.86C133.035 51.7 133.437 51.62 133.888 51.62C134.431 51.62 134.892 51.72 135.264 51.92C135.635 52.12 135.927 52.4 136.137 52.76C136.348 53.12 136.479 53.53 136.529 54H135.585C135.535 53.67 135.455 53.38 135.324 53.14C135.204 52.9 135.023 52.71 134.792 52.58C134.561 52.45 134.26 52.38 133.888 52.38C133.567 52.38 133.286 52.44 133.045 52.56C132.804 52.68 132.603 52.85 132.443 53.07C132.282 53.29 132.162 53.56 132.081 53.87C132.001 54.18 131.961 54.52 131.961 54.9V55.62C131.961 55.97 132.001 56.3 132.071 56.6C132.152 56.91 132.262 57.18 132.413 57.41C132.563 57.64 132.754 57.82 132.995 57.96C133.226 58.09 133.507 58.16 133.828 58.16C134.23 58.16 134.551 58.1 134.792 57.97C135.033 57.84 135.214 57.66 135.334 57.42C135.445 57.21 135.535 56.93 135.585 56.59Z" fill="#F3F0ED"/>
<path d="M125.023 51.73H124.19L121.449 58.86H122.423L123.106 56.99H126.118L126.801 58.86H127.774L125.023 51.73ZM123.387 56.22L124.612 52.89L125.837 56.22H123.387Z" fill="#F3F0ED"/>
<path d="M121.329 52.78C121.138 52.45 120.847 52.19 120.476 52.01C120.104 51.82 119.642 51.73 119.1 51.73H116.45V58.86H117.403V56.06H119.09C119.632 56.06 120.094 55.98 120.466 55.81C120.847 55.64 121.128 55.39 121.319 55.07C121.51 54.75 121.61 54.36 121.61 53.9C121.62 53.48 121.52 53.11 121.329 52.78ZM120.496 54.63C120.395 54.84 120.225 55 119.994 55.12C119.763 55.24 119.462 55.3 119.09 55.3H117.393V52.5H119.09C119.462 52.5 119.763 52.57 119.994 52.7C120.225 52.83 120.395 53 120.496 53.22C120.606 53.44 120.656 53.67 120.656 53.91C120.666 54.18 120.606 54.42 120.496 54.63Z" fill="#F3F0ED"/>
<path d="M114.191 56.59H115.134C115.084 57.04 114.954 57.44 114.743 57.8C114.532 58.16 114.231 58.44 113.849 58.65C113.468 58.86 112.986 58.96 112.404 58.96C111.982 58.96 111.601 58.88 111.249 58.72C110.908 58.56 110.617 58.34 110.366 58.05C110.115 57.76 109.924 57.41 109.793 57.01C109.663 56.6 109.593 56.15 109.593 55.65V54.94C109.593 54.44 109.663 53.99 109.793 53.58C109.924 53.17 110.125 52.82 110.376 52.53C110.627 52.24 110.938 52.02 111.289 51.86C111.641 51.7 112.042 51.62 112.494 51.62C113.036 51.62 113.498 51.72 113.869 51.92C114.241 52.12 114.532 52.4 114.743 52.76C114.954 53.12 115.084 53.53 115.134 54H114.191C114.141 53.67 114.06 53.38 113.93 53.14C113.809 52.9 113.629 52.71 113.398 52.58C113.167 52.45 112.866 52.38 112.494 52.38C112.173 52.38 111.892 52.44 111.651 52.56C111.41 52.68 111.209 52.85 111.038 53.07C110.878 53.29 110.757 53.56 110.677 53.87C110.597 54.18 110.556 54.52 110.556 54.9V55.62C110.556 55.97 110.597 56.3 110.667 56.6C110.747 56.91 110.858 57.18 111.008 57.41C111.159 57.64 111.35 57.82 111.59 57.96C111.821 58.09 112.102 58.16 112.424 58.16C112.825 58.16 113.147 58.1 113.388 57.97C113.629 57.84 113.809 57.66 113.93 57.42C114.05 57.21 114.141 56.93 114.191 56.59Z" fill="#F3F0ED"/>
<path d="M104.643 55.77C104.864 55.69 105.065 55.58 105.235 55.45C105.486 55.26 105.677 55.03 105.808 54.76C105.938 54.49 106.008 54.19 106.008 53.87C106.008 53.41 105.908 53.02 105.707 52.7C105.517 52.38 105.225 52.14 104.854 51.98C104.482 51.82 104.031 51.74 103.488 51.74H101.109V58.87H102.063V55.98H103.75L105.316 58.87H106.33V58.8L104.643 55.77ZM102.063 55.2V52.5H103.488C103.86 52.5 104.151 52.56 104.382 52.67C104.613 52.78 104.784 52.94 104.894 53.15C105.004 53.35 105.055 53.6 105.055 53.87C105.055 54.11 104.994 54.34 104.884 54.54C104.774 54.74 104.603 54.9 104.372 55.02C104.141 55.14 103.86 55.2 103.519 55.2H102.063Z" fill="#F3F0ED"/>
<path d="M99.9345 58.09V58.86H95.3664V51.73H99.8843V52.5H96.3202V54.79H99.4325V55.56H96.3202V58.09H99.9345Z" fill="#F3F0ED"/>
<path d="M93.7601 55.96C93.6296 55.7 93.4489 55.5 93.2079 55.33C93.0573 55.23 92.8867 55.15 92.6959 55.1C92.7662 55.07 92.8264 55.04 92.8967 55C93.1678 54.85 93.3786 54.66 93.5292 54.42C93.6798 54.18 93.7601 53.91 93.7601 53.62C93.7601 53.29 93.7099 53 93.5995 52.76C93.4991 52.52 93.3384 52.33 93.1376 52.17C92.9369 52.01 92.6859 51.9 92.4048 51.82C92.1136 51.75 91.7823 51.71 91.4209 51.71H89.0616V58.84H91.5815C92.0634 58.84 92.475 58.76 92.8365 58.6C93.1879 58.44 93.469 58.21 93.6597 57.91C93.8605 57.6 93.9609 57.23 93.9609 56.78C93.9609 56.49 93.8906 56.21 93.7601 55.96ZM90.0153 52.5H91.4209C91.7321 52.5 91.9931 52.54 92.204 52.62C92.4148 52.69 92.5654 52.82 92.6658 52.98C92.7662 53.14 92.8164 53.36 92.8164 53.62C92.8164 53.86 92.7561 54.06 92.6457 54.24C92.5353 54.41 92.3746 54.54 92.1738 54.63C91.9731 54.72 91.7321 54.77 91.461 54.77H90.0254V52.5H90.0153ZM92.8465 57.49C92.7361 57.68 92.5754 57.83 92.3546 57.93C92.1437 58.03 91.8927 58.09 91.5815 58.09H90.0153V55.52H91.6217C91.9429 55.52 92.214 55.57 92.4148 55.68C92.6156 55.79 92.7662 55.93 92.8666 56.13C92.9569 56.32 93.0071 56.55 93.0071 56.82C93.0071 57.07 92.9569 57.3 92.8465 57.49Z" fill="#F3F0ED"/>
<path d="M87.8869 58.09V58.86H83.3189V51.73H87.8367V52.5H84.2726V54.79H87.3849V55.56H84.2726V58.09H87.8869Z" fill="#F3F0ED"/>
<path d="M82.2647 51.73L80.5178 58.86H79.6544L78.1786 53.66L78.0581 53.11L77.9477 53.66L76.4116 58.86H75.5482L73.8013 51.73H74.7551L75.8896 56.6L76.0301 57.55L76.2309 56.71L77.6565 51.73H78.4497L79.8351 56.71L80.0359 57.57L80.1966 56.6L81.311 51.73H82.2647Z" fill="#F3F0ED"/>
<path d="M157.241 29.36H164.469C164.369 31.45 163.807 33.29 162.773 34.88C161.738 36.47 160.313 37.72 158.476 38.61C156.658 39.49 154.51 39.93 152.03 39.93C150.022 39.93 148.225 39.59 146.639 38.92C145.073 38.25 143.737 37.28 142.633 36.02C141.549 34.76 140.715 33.23 140.133 31.43C139.571 29.63 139.29 27.6 139.29 25.35V23.72C139.29 21.47 139.581 19.44 140.173 17.64C140.776 15.83 141.629 14.29 142.733 13.03C143.848 11.75 145.183 10.78 146.739 10.1C148.295 9.43 150.022 9.09 151.92 9.09C154.54 9.09 156.749 9.56 158.546 10.49C160.353 11.42 161.748 12.71 162.732 14.34C163.726 15.96 164.309 17.81 164.489 19.88H157.261C157.231 18.75 157.04 17.81 156.678 17.06C156.317 16.29 155.755 15.71 154.982 15.33C154.209 14.95 153.185 14.75 151.91 14.75C151.016 14.75 150.233 14.91 149.58 15.24C148.918 15.57 148.366 16.09 147.924 16.81C147.482 17.52 147.151 18.45 146.93 19.59C146.719 20.72 146.619 22.08 146.619 23.67V25.34C146.619 26.93 146.719 28.29 146.91 29.42C147.101 30.55 147.412 31.47 147.844 32.18C148.275 32.89 148.817 33.42 149.5 33.77C150.193 34.1 151.026 34.26 152.02 34.26C153.124 34.26 154.048 34.09 154.811 33.75C155.564 33.39 156.156 32.86 156.568 32.14C157 31.41 157.221 30.48 157.241 29.36Z" fill="#D88546" stroke="#D88546"/>
<path d="M129.491 29.36H136.72C136.619 31.45 136.057 33.29 135.023 34.88C133.989 36.47 132.563 37.72 130.726 38.61C128.909 39.49 126.76 39.93 124.281 39.93C122.273 39.93 120.476 39.59 118.889 38.92C117.323 38.25 115.988 37.28 114.883 36.02C113.799 34.76 112.966 33.23 112.384 31.43C111.821 29.63 111.54 27.6 111.54 25.35V23.72C111.54 21.47 111.831 19.44 112.424 17.64C113.026 15.83 113.88 14.29 114.984 13.03C116.098 11.75 117.434 10.78 118.99 10.1C120.546 9.43 122.273 9.09 124.17 9.09C126.79 9.09 128.999 9.56 130.796 10.49C132.603 11.42 133.999 12.71 134.983 14.34C135.977 15.96 136.559 17.81 136.74 19.88H129.511C129.481 18.75 129.29 17.81 128.929 17.06C128.568 16.29 128.005 15.71 127.232 15.33C126.459 14.95 125.435 14.75 124.16 14.75C123.267 14.75 122.483 14.91 121.831 15.24C121.168 15.57 120.616 16.09 120.174 16.81C119.733 17.53 119.401 18.45 119.18 19.59C118.97 20.72 118.869 22.08 118.869 23.67V25.34C118.869 26.93 118.97 28.29 119.16 29.42C119.351 30.55 119.662 31.47 120.094 32.18C120.526 32.89 121.068 33.42 121.751 33.77C122.443 34.1 123.277 34.26 124.271 34.26C125.375 34.26 126.299 34.09 127.062 33.75C127.815 33.39 128.407 32.86 128.819 32.14C129.25 31.41 129.471 30.48 129.491 29.36Z" fill="#D88546" stroke="#D88546"/>
<path d="M109.542 9.51001L103.167 39.51H95.6676L91.6417 22.41L87.6962 39.51H80.1865L73.8013 9.51001H80.9897L84.4433 28.29L88.5696 9.51001H94.7239L98.9305 28.33L102.384 9.51001H109.542Z" fill="#D88546" stroke="#D88546"/>
<path fill-rule="evenodd" clip-rule="evenodd" d="M36.484 0H48.5918V58.93H57.3263V10.08H53.7221V9.01H58.4005V60H47.5176V1.07H37.5583V60H33.4219V21.07H24.3762V60H20.2399V28.85H10.893V60H0V9.01H28.5828V10.08H1.07424V58.93H9.80872V27.79H21.3041V58.94H23.2919V20H34.4861V58.93H36.474V0H36.484Z" fill="#F3F0ED"/>
</g>
<defs>
<clipPath id="clip0_42_134">
<rect width="190" height="60" fill="white"/>
</clipPath>
</defs>
</svg>
