<?xml version="1.0" encoding="iso-8859-1"?>
<!-- Uploaded to: SVG Repo, www.svgrepo.com, Generator: SVG Repo Mixer Tools -->
<!DOCTYPE svg PUBLIC "-//W3C//DTD SVG 1.1//EN" "http://www.w3.org/Graphics/SVG/1.1/DTD/svg11.dtd">
<svg fill="#000000" version="1.1" id="Capa_1" xmlns="http://www.w3.org/2000/svg" xmlns:xlink="http://www.w3.org/1999/xlink" 
	 width="800px" height="800px" viewBox="0 0 610.006 610.006"
	 xml:space="preserve">
<g>
	<g>
		<path d="M502.031,406.423H262.859c-10.509,0-19.015,8.506-19.015,19.015c0,10.51,8.506,19.016,19.015,19.016h239.172
			c10.509,0,19.015-8.506,19.015-19.016C521.046,414.929,512.54,406.423,502.031,406.423z"/>
		<path d="M430.423,483.927H262.859c-10.509,0-19.015,8.506-19.015,19.015c0,10.51,8.506,19.016,19.015,19.016h167.569
			c10.509,0,19.015-8.506,19.015-19.016C449.438,492.428,440.932,483.927,430.423,483.927z"/>
		<path d="M502.031,96.421H262.859c-10.509,0-19.015,8.506-19.015,19.015s8.506,19.015,19.015,19.015h239.172
			c10.509,0,19.015-8.506,19.015-19.015S512.54,96.421,502.031,96.421z"/>
		<path d="M76.5,535.497H39.737c1.248,40.909,34.727,73.713,75.936,73.713h418.283c41.998,0,76.05-34.052,76.05-76.051V76.847
			c0-41.999-34.052-76.051-76.05-76.051H115.673c-42.003,0-76.055,34.052-76.055,76.051h19.015c2.314,0,4.581,0.177,6.823,0.449
			H76.5c28.998,0,52.594,23.596,52.594,52.594v20.717c0,28.998-23.596,52.594-52.594,52.594H39.618v206.392H76.5
			c28.998,0,52.594,23.596,52.594,52.594v20.717C129.094,511.907,105.498,535.497,76.5,535.497z M200.812,43.827h325.35
			c20.98,0,38.025,17.045,38.025,38.025v445.105c0,20.942-17.045,38.025-38.025,38.025h-325.35V43.827z"/>
		<path d="M502.031,328.924H262.859c-10.509,0-19.015,8.506-19.015,19.015s8.506,19.015,19.015,19.015h239.172
			c10.509,0,19.015-8.506,19.015-19.015S512.54,328.924,502.031,328.924z"/>
		<path d="M262.859,211.945h81.506c10.509,0,19.015-8.506,19.015-19.015c0-10.509-8.506-19.015-19.015-19.015h-81.506
			c-10.509,0-19.015,8.506-19.015,19.015C243.844,203.444,252.35,211.945,262.859,211.945z"/>
		<path d="M262.859,289.45h81.506c10.509,0,19.015-8.506,19.015-19.015s-8.506-19.015-19.015-19.015h-81.506
			c-10.509,0-19.015,8.506-19.015,19.015S252.35,289.45,262.859,289.45z"/>
		<path d="M28.688,179.294H76.5c15.845,0,28.688-12.843,28.688-28.688V129.89c0-15.845-12.842-28.688-28.688-28.688H28.688
			C12.842,101.202,0,114.044,0,129.89v20.717C0,166.452,12.842,179.294,28.688,179.294z"/>
		<path d="M28.688,511.591H76.5c15.845,0,28.688-12.842,28.688-28.688v-20.717c0-15.845-12.842-28.688-28.688-28.688H28.688
			C12.842,433.499,0,446.342,0,462.187v20.717C0,498.749,12.842,511.591,28.688,511.591z"/>
		<rect x="406.406" y="172.921" width="105.188" height="114.75"/>
	</g>
</g>
</svg>