<?xml version="1.0" encoding="utf-8"?>
<!-- Generator: Adobe Illustrator 28.0.0, SVG Export Plug-In . SVG Version: 6.00 Build 0)  -->
<svg version="1.1" id="Layer_1" xmlns="http://www.w3.org/2000/svg" xmlns:xlink="http://www.w3.org/1999/xlink" x="0px" y="0px"
	 viewBox="0 0 300 80" style="enable-background:new 0 0 300 80;" xml:space="preserve">
<style type="text/css">
	.st0{fill:#3C3B3A;}
	.st1{fill:#F36B34;}
	.st2{fill-rule:evenodd;clip-rule:evenodd;fill:#3C3B3A;}
</style>
<g id="LOGO">
	<g id="Weber_cpa_consulting">
		<g>
			<path class="st0" d="M244.62,65.31v2.61c-0.09,0.13-0.23,0.28-0.42,0.44c-0.19,0.16-0.46,0.3-0.8,0.42
				c-0.34,0.12-0.77,0.18-1.31,0.18c-0.44,0-0.84-0.08-1.2-0.23c-0.36-0.15-0.68-0.38-0.95-0.67c-0.27-0.29-0.47-0.65-0.62-1.07
				c-0.14-0.42-0.22-0.9-0.22-1.43v-0.55c0-0.53,0.06-1.01,0.19-1.43c0.13-0.42,0.31-0.77,0.56-1.06c0.25-0.29,0.55-0.52,0.91-0.67
				c0.36-0.15,0.77-0.23,1.23-0.23c0.55,0,1,0.09,1.37,0.28c0.37,0.19,0.66,0.44,0.87,0.77c0.21,0.33,0.34,0.71,0.4,1.13h-0.95
				c-0.04-0.26-0.13-0.49-0.26-0.71c-0.12-0.21-0.3-0.38-0.54-0.51c-0.23-0.13-0.53-0.2-0.9-0.2c-0.33,0-0.62,0.06-0.86,0.18
				c-0.24,0.12-0.44,0.29-0.6,0.52c-0.16,0.23-0.28,0.5-0.35,0.82c-0.08,0.32-0.11,0.68-0.11,1.08v0.56c0,0.41,0.05,0.78,0.14,1.1
				c0.1,0.32,0.24,0.6,0.42,0.83c0.18,0.23,0.4,0.4,0.64,0.51c0.25,0.12,0.53,0.18,0.84,0.18c0.34,0,0.61-0.03,0.82-0.08
				c0.21-0.06,0.37-0.13,0.49-0.21c0.12-0.08,0.21-0.16,0.27-0.23v-1.6h-1.66v-0.76H244.62z"/>
			<path class="st0" d="M237.65,61.73v7.13h-0.95l-3.61-5.5v5.5h-0.95v-7.13h0.95l3.62,5.52v-5.52H237.65z"/>
			<path class="st0" d="M230.41,61.73v7.13h-0.95v-7.13H230.41z"/>
			<polygon class="st0" points="228.33,61.73 228.33,62.5 226.03,62.5 226.03,68.86 225.1,68.86 225.1,62.5 222.8,62.5 222.8,61.73 
							"/>
			<polygon class="st0" points="223.65,68.09 223.65,68.86 219.31,68.86 219.31,61.73 220.26,61.73 220.26,68.09 			"/>
			<path class="st0" d="M216.87,61.73h0.94v4.83c0,0.54-0.12,0.98-0.36,1.34c-0.24,0.36-0.56,0.62-0.95,0.8
				c-0.39,0.18-0.82,0.26-1.28,0.26c-0.49,0-0.92-0.09-1.32-0.26c-0.39-0.18-0.7-0.45-0.93-0.8c-0.23-0.36-0.34-0.8-0.34-1.34v-4.83
				h0.94v4.83c0,0.37,0.07,0.68,0.21,0.92c0.14,0.24,0.33,0.42,0.58,0.54c0.25,0.12,0.54,0.18,0.87,0.18c0.33,0,0.62-0.06,0.87-0.18
				c0.25-0.12,0.44-0.3,0.58-0.54c0.14-0.24,0.21-0.55,0.21-0.92V61.73z"/>
			<path class="st0" d="M210.61,67.06c0-0.17-0.03-0.31-0.08-0.44c-0.05-0.13-0.14-0.25-0.27-0.35c-0.12-0.1-0.3-0.2-0.52-0.3
				c-0.22-0.09-0.5-0.19-0.84-0.29c-0.35-0.1-0.67-0.22-0.96-0.35c-0.29-0.13-0.53-0.28-0.73-0.45c-0.2-0.17-0.36-0.36-0.47-0.57
				c-0.11-0.22-0.16-0.46-0.16-0.74c0-0.28,0.06-0.53,0.17-0.77c0.11-0.24,0.28-0.44,0.49-0.61c0.22-0.18,0.47-0.31,0.77-0.41
				c0.3-0.1,0.63-0.15,1-0.15c0.54,0,0.99,0.1,1.37,0.31c0.38,0.2,0.66,0.47,0.86,0.8c0.2,0.33,0.29,0.68,0.29,1.05h-0.94
				c0-0.27-0.06-0.5-0.17-0.71c-0.11-0.21-0.29-0.37-0.52-0.49c-0.23-0.12-0.53-0.18-0.89-0.18c-0.34,0-0.62,0.05-0.84,0.15
				c-0.22,0.1-0.38,0.24-0.49,0.41c-0.1,0.17-0.16,0.37-0.16,0.59c0,0.15,0.03,0.29,0.09,0.41c0.07,0.12,0.17,0.23,0.3,0.34
				c0.14,0.1,0.31,0.2,0.52,0.29c0.21,0.09,0.47,0.17,0.76,0.25c0.41,0.11,0.76,0.24,1.05,0.38c0.29,0.14,0.54,0.3,0.73,0.48
				c0.19,0.17,0.34,0.37,0.43,0.59c0.1,0.22,0.14,0.47,0.14,0.74c0,0.29-0.06,0.55-0.18,0.79c-0.12,0.24-0.29,0.44-0.51,0.6
				c-0.22,0.17-0.48,0.3-0.79,0.39c-0.31,0.09-0.65,0.13-1.02,0.13c-0.33,0-0.66-0.05-0.98-0.14c-0.32-0.09-0.61-0.23-0.87-0.41
				c-0.26-0.18-0.47-0.41-0.62-0.68c-0.15-0.27-0.23-0.58-0.23-0.94h0.94c0,0.24,0.05,0.46,0.14,0.63c0.09,0.17,0.22,0.32,0.39,0.43
				c0.17,0.11,0.36,0.2,0.57,0.25c0.21,0.05,0.43,0.08,0.66,0.08c0.33,0,0.61-0.05,0.84-0.14c0.23-0.09,0.4-0.22,0.52-0.39
				C210.55,67.49,210.61,67.29,210.61,67.06z"/>
			<path class="st0" d="M205.11,61.73v7.13h-0.95l-3.61-5.5v5.5h-0.95v-7.13h0.95l3.62,5.52v-5.52H205.11z"/>
			<path class="st0" d="M198.18,65.07v0.45c0,0.54-0.07,1.02-0.2,1.44c-0.13,0.42-0.33,0.79-0.58,1.08
				c-0.25,0.3-0.56,0.52-0.91,0.68c-0.35,0.16-0.74,0.24-1.18,0.24c-0.42,0-0.81-0.08-1.17-0.24c-0.35-0.16-0.66-0.38-0.91-0.68
				c-0.26-0.3-0.45-0.66-0.6-1.08c-0.14-0.42-0.21-0.9-0.21-1.44v-0.45c0-0.54,0.07-1.01,0.21-1.44c0.14-0.42,0.34-0.79,0.6-1.08
				c0.26-0.3,0.56-0.53,0.91-0.69c0.35-0.16,0.74-0.24,1.17-0.24c0.44,0,0.83,0.08,1.18,0.24c0.35,0.16,0.66,0.39,0.91,0.69
				c0.26,0.3,0.45,0.66,0.59,1.08C198.12,64.06,198.18,64.53,198.18,65.07z M197.24,65.52v-0.46c0-0.42-0.04-0.8-0.13-1.13
				c-0.09-0.33-0.21-0.6-0.38-0.82c-0.17-0.22-0.37-0.39-0.61-0.5c-0.24-0.11-0.51-0.17-0.82-0.17c-0.3,0-0.56,0.06-0.8,0.17
				c-0.24,0.11-0.44,0.28-0.61,0.5c-0.17,0.22-0.3,0.5-0.39,0.82c-0.09,0.33-0.14,0.7-0.14,1.13v0.46c0,0.43,0.05,0.81,0.14,1.14
				c0.09,0.33,0.22,0.6,0.39,0.83c0.17,0.22,0.38,0.39,0.61,0.5c0.24,0.11,0.51,0.17,0.8,0.17c0.31,0,0.58-0.06,0.82-0.17
				c0.24-0.11,0.44-0.28,0.61-0.5c0.17-0.23,0.29-0.5,0.38-0.83C197.2,66.33,197.24,65.95,197.24,65.52z"/>
			<path class="st0" d="M190.43,66.59h0.94c-0.05,0.45-0.18,0.85-0.39,1.21c-0.21,0.36-0.51,0.64-0.89,0.85
				c-0.38,0.21-0.86,0.31-1.44,0.31c-0.42,0-0.8-0.08-1.15-0.24c-0.34-0.16-0.63-0.38-0.88-0.67c-0.25-0.29-0.44-0.64-0.57-1.04
				c-0.13-0.41-0.2-0.86-0.2-1.36v-0.71c0-0.5,0.07-0.95,0.2-1.36c0.13-0.41,0.33-0.76,0.58-1.05c0.25-0.29,0.56-0.51,0.91-0.67
				c0.35-0.16,0.75-0.24,1.2-0.24c0.54,0,1,0.1,1.37,0.3c0.37,0.2,0.66,0.48,0.87,0.84c0.21,0.36,0.34,0.77,0.39,1.24h-0.94
				c-0.05-0.33-0.13-0.62-0.26-0.86c-0.12-0.24-0.3-0.43-0.53-0.56c-0.23-0.13-0.53-0.2-0.9-0.2c-0.32,0-0.6,0.06-0.84,0.18
				c-0.24,0.12-0.44,0.29-0.6,0.51c-0.16,0.22-0.28,0.49-0.36,0.8c-0.08,0.31-0.12,0.65-0.12,1.03v0.72c0,0.35,0.04,0.68,0.11,0.98
				c0.08,0.31,0.19,0.58,0.34,0.81c0.15,0.23,0.34,0.41,0.58,0.55c0.23,0.13,0.51,0.2,0.83,0.2c0.4,0,0.72-0.06,0.96-0.19
				c0.24-0.13,0.42-0.31,0.54-0.55C190.29,67.21,190.38,66.93,190.43,66.59z"/>
			<path class="st0" d="M179.91,61.73h-0.83l-2.73,7.13h0.97l0.68-1.87h3l0.68,1.87h0.97L179.91,61.73z M178.28,66.22l1.22-3.33
				l1.22,3.33H178.28z"/>
			<path class="st0" d="M176.23,62.78c-0.19-0.33-0.48-0.59-0.85-0.77c-0.37-0.19-0.83-0.28-1.37-0.28h-2.64v7.13h0.95v-2.8H174
				c0.54,0,1-0.08,1.37-0.25c0.38-0.17,0.66-0.42,0.85-0.74c0.19-0.32,0.29-0.71,0.29-1.17C176.52,63.48,176.42,63.11,176.23,62.78z
				 M175.4,64.63c-0.1,0.21-0.27,0.37-0.5,0.49c-0.23,0.12-0.53,0.18-0.9,0.18h-1.69V62.5H174c0.37,0,0.67,0.07,0.9,0.2
				c0.23,0.13,0.4,0.3,0.5,0.52c0.11,0.22,0.16,0.45,0.16,0.69C175.57,64.18,175.51,64.42,175.4,64.63z"/>
			<path class="st0" d="M169.12,66.59h0.94c-0.05,0.45-0.18,0.85-0.39,1.21c-0.21,0.36-0.51,0.64-0.89,0.85
				c-0.38,0.21-0.86,0.31-1.44,0.31c-0.42,0-0.8-0.08-1.15-0.24c-0.34-0.16-0.63-0.38-0.88-0.67c-0.25-0.29-0.44-0.64-0.57-1.04
				c-0.13-0.41-0.2-0.86-0.2-1.36v-0.71c0-0.5,0.07-0.95,0.2-1.36c0.13-0.41,0.33-0.76,0.58-1.05c0.25-0.29,0.56-0.51,0.91-0.67
				c0.35-0.16,0.75-0.24,1.2-0.24c0.54,0,1,0.1,1.37,0.3c0.37,0.2,0.66,0.48,0.87,0.84c0.21,0.36,0.34,0.77,0.39,1.24h-0.94
				c-0.05-0.33-0.13-0.62-0.26-0.86c-0.12-0.24-0.3-0.43-0.53-0.56c-0.23-0.13-0.53-0.2-0.9-0.2c-0.32,0-0.6,0.06-0.84,0.18
				c-0.24,0.12-0.44,0.29-0.61,0.51c-0.16,0.22-0.28,0.49-0.36,0.8c-0.08,0.31-0.12,0.65-0.12,1.03v0.72c0,0.35,0.04,0.68,0.11,0.98
				c0.08,0.31,0.19,0.58,0.34,0.81c0.15,0.23,0.34,0.41,0.58,0.55c0.23,0.13,0.51,0.2,0.83,0.2c0.4,0,0.72-0.06,0.96-0.19
				c0.24-0.13,0.42-0.31,0.54-0.55C168.98,67.21,169.07,66.93,169.12,66.59z"/>
			<path class="st0" d="M159.61,65.77c0.22-0.08,0.42-0.19,0.59-0.32c0.25-0.19,0.44-0.42,0.57-0.69c0.13-0.27,0.2-0.57,0.2-0.89
				c0-0.46-0.1-0.85-0.3-1.17c-0.19-0.32-0.48-0.56-0.85-0.72c-0.37-0.16-0.82-0.24-1.36-0.24h-2.37v7.13h0.95v-2.89h1.68l1.56,2.89
				h1.01V68.8L159.61,65.77z M157.04,65.2v-2.7h1.42c0.37,0,0.66,0.06,0.89,0.17c0.23,0.11,0.4,0.27,0.51,0.48
				c0.11,0.2,0.16,0.45,0.16,0.72c0,0.24-0.06,0.47-0.17,0.67c-0.11,0.2-0.28,0.36-0.51,0.48c-0.23,0.12-0.51,0.18-0.85,0.18H157.04
				z"/>
			<polygon class="st0" points="154.92,68.09 154.92,68.86 150.37,68.86 150.37,61.73 154.87,61.73 154.87,62.5 151.32,62.5 
				151.32,64.79 154.42,64.79 154.42,65.56 151.32,65.56 151.32,68.09 			"/>
			<path class="st0" d="M148.77,65.96c-0.13-0.26-0.31-0.46-0.55-0.63c-0.15-0.1-0.32-0.18-0.51-0.23c0.07-0.03,0.13-0.06,0.2-0.1
				c0.27-0.15,0.48-0.34,0.63-0.58c0.15-0.24,0.23-0.51,0.23-0.8c0-0.33-0.05-0.62-0.16-0.86c-0.1-0.24-0.26-0.43-0.46-0.59
				c-0.2-0.16-0.45-0.27-0.73-0.35c-0.29-0.07-0.62-0.11-0.98-0.11h-2.35v7.13h2.51c0.48,0,0.89-0.08,1.25-0.24
				c0.35-0.16,0.63-0.39,0.82-0.69c0.2-0.31,0.3-0.68,0.3-1.13C148.97,66.49,148.9,66.21,148.77,65.96z M145.04,62.5h1.4
				c0.31,0,0.57,0.04,0.78,0.12c0.21,0.07,0.36,0.2,0.46,0.36c0.1,0.16,0.15,0.38,0.15,0.64c0,0.24-0.06,0.44-0.17,0.62
				c-0.11,0.17-0.27,0.3-0.47,0.39c-0.2,0.09-0.44,0.14-0.71,0.14h-1.43V62.5z M147.86,67.49c-0.11,0.19-0.27,0.34-0.49,0.44
				c-0.21,0.1-0.46,0.16-0.77,0.16h-1.56v-2.57h1.6c0.32,0,0.59,0.05,0.79,0.16c0.2,0.11,0.35,0.25,0.45,0.45
				c0.09,0.19,0.14,0.42,0.14,0.69C148.02,67.07,147.97,67.3,147.86,67.49z"/>
			<polygon class="st0" points="142.92,68.09 142.92,68.86 138.37,68.86 138.37,61.73 142.87,61.73 142.87,62.5 139.32,62.5 
				139.32,64.79 142.42,64.79 142.42,65.56 139.32,65.56 139.32,68.09 			"/>
			<polygon class="st0" points="137.32,61.73 135.58,68.86 134.72,68.86 133.25,63.66 133.13,63.11 133.02,63.66 131.49,68.86 
				130.63,68.86 128.89,61.73 129.84,61.73 130.97,66.6 131.11,67.55 131.31,66.71 132.73,61.73 133.52,61.73 134.9,66.71 
				135.1,67.57 135.26,66.6 136.37,61.73 			"/>
		</g>
	</g>
	<g id="WCC">
		<path class="st1" d="M212,39.36h7.2c-0.1,2.09-0.66,3.93-1.69,5.52c-1.03,1.59-2.45,2.84-4.28,3.73
			c-1.81,0.88-3.95,1.32-6.42,1.32c-2,0-3.79-0.34-5.37-1.01c-1.56-0.67-2.89-1.64-3.99-2.9c-1.08-1.26-1.91-2.79-2.49-4.59
			c-0.56-1.8-0.84-3.83-0.84-6.08v-1.63c0-2.25,0.29-4.28,0.88-6.08c0.6-1.81,1.45-3.35,2.55-4.61c1.11-1.28,2.44-2.25,3.99-2.93
			c1.55-0.67,3.27-1.01,5.16-1.01c2.61,0,4.81,0.47,6.6,1.4c1.8,0.93,3.19,2.22,4.17,3.85c0.99,1.62,1.57,3.47,1.75,5.54h-7.2
			c-0.03-1.13-0.22-2.07-0.58-2.82c-0.36-0.77-0.92-1.35-1.69-1.73c-0.77-0.38-1.79-0.58-3.06-0.58c-0.89,0-1.67,0.16-2.32,0.49
			c-0.66,0.33-1.21,0.85-1.65,1.57c-0.44,0.71-0.77,1.64-0.99,2.78c-0.21,1.13-0.31,2.49-0.31,4.08v1.67c0,1.59,0.1,2.95,0.29,4.08
			c0.19,1.13,0.5,2.05,0.93,2.76c0.43,0.71,0.97,1.24,1.65,1.59c0.69,0.33,1.52,0.49,2.51,0.49c1.1,0,2.02-0.17,2.78-0.51
			c0.75-0.36,1.34-0.89,1.75-1.61C211.76,41.41,211.98,40.48,212,39.36z"/>
		<path class="st1" d="M184.36,39.36h7.2c-0.1,2.09-0.66,3.93-1.69,5.52c-1.03,1.59-2.45,2.84-4.28,3.73
			c-1.81,0.88-3.95,1.32-6.42,1.32c-2,0-3.79-0.34-5.37-1.01c-1.56-0.67-2.89-1.64-3.99-2.9c-1.08-1.26-1.91-2.79-2.49-4.59
			c-0.56-1.8-0.84-3.83-0.84-6.08v-1.63c0-2.25,0.29-4.28,0.88-6.08c0.6-1.81,1.45-3.35,2.55-4.61c1.11-1.28,2.44-2.25,3.99-2.93
			c1.55-0.67,3.27-1.01,5.16-1.01c2.61,0,4.81,0.47,6.6,1.4c1.8,0.93,3.19,2.22,4.17,3.85c0.99,1.62,1.57,3.47,1.75,5.54h-7.2
			c-0.03-1.13-0.22-2.07-0.58-2.82c-0.36-0.77-0.92-1.35-1.69-1.73c-0.77-0.38-1.79-0.58-3.06-0.58c-0.89,0-1.67,0.16-2.32,0.49
			c-0.66,0.33-1.21,0.85-1.65,1.57s-0.77,1.64-0.99,2.78c-0.21,1.13-0.31,2.49-0.31,4.08v1.67c0,1.59,0.1,2.95,0.29,4.08
			c0.19,1.13,0.5,2.05,0.93,2.76c0.43,0.71,0.97,1.24,1.65,1.59c0.69,0.33,1.52,0.49,2.51,0.49c1.1,0,2.02-0.17,2.78-0.51
			c0.75-0.36,1.34-0.89,1.75-1.61C184.12,41.41,184.34,40.48,184.36,39.36z"/>
		<polygon class="st1" points="164.49,19.51 158.14,49.51 150.67,49.51 146.66,32.41 142.73,49.51 135.25,49.51 128.89,19.51 
			136.05,19.51 139.49,38.29 143.6,19.51 149.73,19.51 153.92,38.33 157.36,19.51 		"/>
	</g>
	<path id="pic" class="st2" d="M91.72,10h12.06v58.93h8.7V20.08h-3.59v-1.07h4.66V70h-10.84V11.07h-9.92V70h-4.12V31.07h-9.01V70
		h-4.12V38.85h-9.31V70H55.38V19.01h28.47v1.07h-27.4v48.85h8.7V37.79H76.6v31.15h1.98V30h11.15v38.93h1.98V10z"/>
</g>
</svg>
